<svg width="60" height="60" viewBox="0 0 60 60" fill="none" xmlns="http://www.w3.org/2000/svg">
<g clip-path="url(#clip0_66_78)">
<path d="M22.7601 17.4575L20.9426 15.64C24.0143 13.6855 27.6355 12.7761 31.2662 13.0473C34.8969 13.3185 38.3428 14.7558 41.0901 17.145L55.6151 2.61749L57.3825 4.38499L42.8576 18.91C45.246 21.6577 46.6826 25.1037 46.9534 28.7343C47.2241 32.3649 46.3145 35.9859 44.3601 39.0575L42.5426 37.24C44.1428 34.4795 44.7861 31.2676 44.3724 28.1037C43.9587 24.9399 42.5112 22.0013 40.2549 19.7451C37.9987 17.4889 35.0602 16.0414 31.8963 15.6277C28.7325 15.2139 25.5206 15.8572 22.7601 17.4575ZM30.0001 44.5C27.4545 44.504 24.953 43.8366 22.7477 42.5653C20.5424 41.2939 18.7114 39.4635 17.4394 37.2586C16.1673 35.0537 15.4992 32.5524 15.5024 30.0068C15.5056 27.4613 16.18 24.9617 17.4576 22.76L15.6401 20.9425C13.6862 24.0139 12.7769 27.6343 13.0477 31.2644C13.3184 34.8945 14.7547 38.3399 17.1426 41.0875L2.61755 55.615L4.38255 57.3825L18.9101 42.8575C21.6576 45.2463 25.1036 46.6832 28.7343 46.9539C32.3651 47.2247 35.9861 46.3148 39.0576 44.36L37.2401 42.5425C35.0421 43.8234 32.544 44.4988 30.0001 44.5ZM40.0001 30C40.0009 31.3411 39.7305 32.6686 39.2051 33.9025C38.1878 36.287 36.2891 38.1866 33.9051 39.205C32.0714 39.9834 30.0469 40.1963 28.0914 39.8163C26.1359 39.4363 24.3385 38.4808 22.9298 37.0723C21.521 35.6639 20.5652 33.8667 20.1848 31.9112C19.8045 29.9558 20.017 27.9313 20.7951 26.0975C21.8123 23.713 23.711 21.8134 26.0951 20.795C27.6155 20.1494 29.2722 19.8906 30.9171 20.0417C32.562 20.1928 34.1438 20.7491 35.5212 21.6609C36.8985 22.5727 38.0285 23.8116 38.8101 25.2668C39.5917 26.722 40.0005 28.3482 40.0001 30ZM37.2201 31.9175C37.3969 31.2933 37.4911 30.6487 37.5001 30C37.4981 28.0115 36.7073 26.105 35.3012 24.6989C33.8951 23.2928 31.9886 22.502 30.0001 22.5C29.3514 22.509 28.7067 22.6031 28.0826 22.78C26.8109 23.1194 25.6511 23.7881 24.7202 24.7185C23.7893 25.649 23.1201 26.8085 22.7801 28.08C22.603 28.705 22.5088 29.3505 22.5001 30C22.502 31.9885 23.2929 33.895 24.6989 35.3011C26.105 36.7072 28.0115 37.498 30.0001 37.5C30.6487 37.491 31.2934 37.3969 31.9176 37.22C33.1892 36.8806 34.349 36.2119 35.2799 35.2814C36.2108 34.351 36.88 33.189 37.2201 31.9175Z" fill="#F6F6F6"/>
</g>
<defs>
<clipPath id="clip0_66_78">
<rect width="60" height="60" fill="white"/>
</clipPath>
</defs>
</svg>
