<svg width="244" height="243" viewBox="0 0 244 243" fill="none" xmlns="http://www.w3.org/2000/svg">
<path d="M124.6 42.6426C125.341 42.6006 126.056 42.5681 126.753 42.8782C128.029 43.4468 128.414 44.8085 128.842 46.0109C130.816 46.9364 132.731 48.2679 134.625 49.3638C139.035 51.8991 143.429 54.4611 147.808 57.0494L185.657 79.0653C185.959 78.7044 186.333 78.4104 186.756 78.2018C187.503 77.8325 188.34 77.7627 189.127 78.0506C189.924 78.3477 190.571 78.9464 190.926 79.7165C191.275 80.4649 191.331 81.3496 191.035 82.1246C190.63 83.1861 189.814 83.6802 188.834 84.1306C188.865 88.5691 188.857 93.0074 188.811 97.4457L187.122 97.4631C187.094 93.0421 187.088 88.6211 187.106 84.2001C186.052 83.6133 185.464 83.0024 184.919 81.9433L175.036 87.119C173.508 87.9346 171.896 88.6854 170.452 89.6391C170.518 90.9623 170.49 92.2103 169.982 93.4593C169.311 95.1119 168.043 96.5158 166.365 97.1852C164.592 97.8924 162.509 97.8138 160.78 97.0191C159.068 96.2388 157.755 94.7917 157.147 93.0176C156.515 91.1202 156.872 89.334 157.764 87.6061C155.968 86.5155 154.095 85.53 152.274 84.4792L143.291 79.1842C139.599 77.0167 135.976 74.6783 132.218 72.6348C132.041 73.0152 131.867 73.4042 131.653 73.7653C130.637 75.4818 129.025 76.5057 127.12 76.9939C125.908 77.2789 124.524 77.1927 123.339 76.8164C121.264 76.1574 120.126 74.7528 119.156 72.9073C118.002 73.4547 116.887 74.1828 115.777 74.818L108.924 78.7521L99.2797 84.3143C97.3363 85.4244 95.3533 86.4782 93.4478 87.6519C93.9293 88.7165 94.1969 89.815 94.1893 90.9854C94.1774 92.8511 93.4649 94.6256 92.1017 95.9151C90.7111 97.2156 88.8468 97.8933 86.942 97.7903C85.156 97.6918 83.3625 96.9018 82.1785 95.5542C80.7038 93.8757 80.476 91.9037 80.6075 89.7825C78.7985 88.5646 76.7018 87.594 74.7872 86.535C72.0684 85.0309 69.3101 83.32 66.4607 82.0817C65.865 82.9908 65.4619 83.6047 64.4554 84.0955L64.2714 84.1842C63.8916 84.6911 64.0786 96.0592 64.0608 97.5309L62.3606 97.5093C62.2248 93.1292 62.3497 88.7129 62.2994 84.3275C61.3091 83.7461 60.4918 82.9721 60.2137 81.8256C60.0024 80.9512 60.1737 80.0285 60.6848 79.287C61.1602 78.5774 61.9015 78.0874 62.7428 77.9272C63.8051 77.7331 64.6865 78.1201 65.5586 78.6842C70.6828 75.6322 75.8719 72.702 81.0326 69.7138L121.929 46.1436C122.018 45.6305 122.122 45.1201 122.315 44.6341C122.759 43.5178 123.558 43.0902 124.6 42.6426Z" fill="white"/>
<path d="M122.667 47.7039C122.812 47.7492 122.762 47.7193 122.876 47.8085C123.552 48.3337 124.112 48.7461 124.946 48.9948C124.978 53.8161 125.222 58.7013 124.967 63.5152C122.935 63.8747 121.131 64.8019 119.925 66.5205C118.789 68.1384 118.51 70.169 118.862 72.0838C117.225 73.0981 115.514 73.9944 113.839 74.9455L105.166 79.9168C101.072 82.254 97.0634 84.7466 92.8813 86.9277C91.9439 85.9567 91.0187 85.1845 89.7305 84.7231C88.0034 84.1047 86.1103 84.1593 84.45 84.9548C82.6717 85.8072 81.6082 87.1826 80.9672 89.0103C78.9692 87.8102 76.9081 86.7051 74.8725 85.5699C73.1671 84.5896 71.3998 83.7039 69.6617 82.7822C68.7696 82.3091 67.7791 81.8636 66.9854 81.2367C66.6396 80.9635 66.428 80.7381 66.3806 80.295C67.1598 79.2865 80.4461 72.0667 83.1141 70.5359L108.16 56.0271C112.989 53.2433 117.897 50.589 122.667 47.7039Z" fill="#191A2E"/>
<path d="M128.11 47.4817C131.873 49.8512 135.788 51.9603 139.615 54.2223L169.545 71.696L180.401 77.9846C181.713 78.7525 183.16 79.4388 184.414 80.2857C184.653 80.4471 184.815 80.5881 184.929 80.8598C183.92 81.7824 178.238 84.4224 176.676 85.2286C174.527 86.4322 172.33 87.5485 170.09 88.5748C169.795 87.6913 169.367 86.945 168.719 86.2672C167.43 84.9208 165.577 84.1856 163.721 84.1678C161.322 84.1448 159.698 85.2751 158.073 86.8709C154.223 84.8439 150.5 82.4661 146.75 80.2582C142 77.4623 137.167 74.7546 132.5 71.8261C132.621 69.7831 132.391 67.9326 131.086 66.2506C129.769 64.5548 127.936 63.7442 125.838 63.4955C125.796 58.6533 125.783 53.8108 125.801 48.9686C126.801 48.6151 127.443 48.3293 128.11 47.4817Z" fill="#191A2E"/>
<path d="M124.998 66.7442C127.034 66.426 128.939 67.8223 129.24 69.8525C129.541 71.8826 128.121 73.7675 126.08 74.0482C124.065 74.3254 122.202 72.9339 121.905 70.9301C121.609 68.926 122.989 67.0582 124.998 66.7442Z" fill="#191A2E"/>
<path d="M163.12 87.2976C165.111 86.9967 166.975 88.3465 167.302 90.3256C167.629 92.305 166.297 94.1783 164.314 94.5285C163.009 94.759 161.68 94.2725 160.836 93.2552C159.991 92.2378 159.762 90.8468 160.234 89.6135C160.707 88.3804 161.809 87.4958 163.12 87.2976Z" fill="#191A2E"/>
<path d="M86.6343 87.5048C88.6087 87.0902 90.5435 88.3588 90.9417 90.3287C91.3396 92.2988 90.0482 94.2139 88.0664 94.5921C86.1103 94.9654 84.2179 93.6994 83.825 91.7549C83.432 89.8107 84.6856 87.9141 86.6343 87.5048Z" fill="#191A2E"/>
<path d="M62.605 78.889C63.815 78.5129 65.1022 79.1847 65.4801 80.3895C65.8582 81.5943 65.1842 82.8764 63.9744 83.2533C62.7642 83.6303 61.476 82.9585 61.0979 81.753C60.7197 80.5477 61.3945 79.2651 62.605 78.889Z" fill="#191A2E"/>
<path d="M124.75 43.6177C125.53 43.4072 126.364 43.6334 126.929 44.2091C127.495 44.7845 127.704 45.6199 127.476 46.3923C127.247 47.1649 126.617 47.7542 125.829 47.9329C124.643 48.2015 123.46 47.4765 123.166 46.3019C122.872 45.127 123.576 43.934 124.75 43.6177Z" fill="#191A2E"/>
<path d="M187.832 78.9367C189.005 78.7909 190.077 79.6165 190.229 80.7845C190.382 81.9523 189.559 83.024 188.388 83.1827C187.206 83.3427 186.12 82.5152 185.966 81.3379C185.812 80.1609 186.649 79.0835 187.832 78.9367Z" fill="#191A2E"/>
<path d="M186.997 134.363L188.784 134.355C188.678 142.193 188.719 150.067 188.811 157.904C189.74 158.443 190.599 159.113 190.875 160.201C191.085 161.024 190.977 161.795 190.539 162.524C190.079 163.291 189.287 163.907 188.405 164.1C187.689 164.256 187.034 164.061 186.432 163.657C186.269 163.547 186.212 163.473 186.004 163.441C185.96 163.434 185.915 163.435 185.87 163.432L185.882 163.345L145.084 187.087L134.582 193.047C132.69 194.122 130.773 195.388 128.773 196.243C128.777 197.349 128.724 198.21 127.957 199.094C127.362 199.775 126.507 200.175 125.601 200.196C124.76 200.214 123.946 199.893 123.346 199.305C122.502 198.492 122.285 197.532 122.267 196.415C115.435 192.216 108.394 188.336 101.444 184.331C94.6414 180.392 87.8657 176.408 81.1168 172.379C75.9342 169.341 70.687 166.359 65.6307 163.117C65.233 163.537 64.8599 163.919 64.3278 164.168C63.5179 164.546 62.6334 164.586 61.7994 164.258C61.0245 163.953 60.4035 163.353 60.074 162.591C59.7139 161.759 59.6963 160.786 60.0642 159.953C60.4984 158.97 61.2885 158.456 62.2652 158.094C62.3043 150.295 62.3024 142.496 62.2597 134.698L63.9329 134.692L63.9677 158.194C64.1607 158.301 64.3545 158.411 64.5351 158.537C65.522 159.231 65.832 160.056 66.0403 161.187C71.1169 158.916 75.7746 155.769 80.7921 153.393C80.7096 152.058 80.7439 150.678 81.2376 149.417C81.9096 147.673 83.2649 146.277 84.9918 145.55C86.6657 144.839 88.5252 144.855 90.2077 145.531C91.9143 146.215 93.2699 147.558 93.9652 149.254C94.8359 151.415 94.4356 153.508 93.5125 155.561C95.815 156.827 98.0448 158.209 100.31 159.539L111.548 166.121C113.968 167.551 116.408 169.335 118.978 170.457C119.066 170.14 119.156 169.821 119.276 169.515C119.864 168.008 121.281 166.701 122.767 166.068C124.53 165.337 126.513 165.34 128.273 166.076C130.193 166.877 131.318 168.25 132.115 170.102L149.397 160.131C152.128 158.55 155.011 157.077 157.637 155.338C156.961 154.164 156.575 152.987 156.632 151.617C156.698 149.827 157.488 148.14 158.823 146.94C160.235 145.662 162.11 145.012 164.014 145.141C165.873 145.282 167.594 146.172 168.779 147.605C170.072 149.2 170.395 151.093 170.214 153.088C171.966 153.744 173.664 154.88 175.318 155.758C178.446 157.417 181.65 158.993 184.705 160.78C184.773 160.537 184.842 160.292 184.928 160.054C185.33 158.948 185.959 158.398 187.014 157.921C186.928 150.069 186.923 142.215 186.997 134.363Z" fill="white"/>
<path d="M170.083 153.763C172.649 155.087 175.155 156.534 177.713 157.876C180.054 159.103 182.539 160.227 184.754 161.659C172.195 169.274 159.55 176.745 146.818 184.071C142.643 186.459 138.529 188.945 134.285 191.215C132.293 192.328 130.147 193.448 128.288 194.768C127.486 194.26 126.777 193.893 125.826 193.719C125.669 188.816 125.866 183.902 125.719 178.996C126.129 178.969 126.543 178.915 126.949 178.846C128.647 178.56 130.293 177.498 131.276 176.091C132.417 174.458 132.634 172.714 132.303 170.809C134.793 169.272 137.449 167.952 139.985 166.486C145.987 162.95 152.027 159.479 158.105 156.073C158.826 156.87 159.61 157.503 160.596 157.939C162.283 158.686 164.324 158.761 166.04 158.065C167.992 157.273 169.294 155.657 170.083 153.763Z" fill="#191A2E"/>
<path d="M81.0635 154.072C81.6256 154.945 81.9089 155.918 82.6643 156.675C83.9698 157.985 85.6785 158.734 87.5366 158.741C89.8625 158.749 91.4635 157.708 93.066 156.116C96.2711 158.136 99.5856 159.997 102.857 161.907L118.745 171.24C118.711 173.115 118.884 174.69 120.06 176.245C121.321 177.915 123.025 178.705 125.057 178.989C125.095 183.911 125.093 188.833 125.051 193.756C124.237 194.007 123.611 194.367 122.933 194.867C120.957 193.634 118.897 192.509 116.881 191.341C106.371 185.283 95.9037 179.154 85.4789 172.952L73.4061 165.78C71.1386 164.44 68.8911 163.002 66.5393 161.815C68.248 161.101 69.8605 160.11 71.4896 159.236C74.6911 157.533 77.8824 155.812 81.0635 154.072Z" fill="#191A2E"/>
<path d="M124.834 168.572C126.835 168.24 128.735 169.564 129.106 171.551C129.478 173.537 128.183 175.453 126.196 175.86C124.877 176.131 123.515 175.67 122.633 174.656C121.751 173.643 121.488 172.234 121.944 170.972C122.401 169.71 123.506 168.792 124.834 168.572Z" fill="#191A2E"/>
<path d="M86.9613 148.19C88.2804 147.966 89.6183 148.469 90.4595 149.506C91.3006 150.542 91.5141 151.951 91.0175 153.188C90.5212 154.426 89.3922 155.3 88.0652 155.474C86.0665 155.737 84.2248 154.357 83.9241 152.372C83.6232 150.386 84.9738 148.527 86.9613 148.19Z" fill="#191A2E"/>
<path d="M162.69 148.272C164.658 147.841 166.606 149.074 167.05 151.03C167.494 152.987 166.269 154.934 164.306 155.388C162.327 155.847 160.352 154.613 159.904 152.64C159.456 150.666 160.706 148.706 162.69 148.272Z" fill="#191A2E"/>
<path d="M187.297 158.724C188.555 158.411 189.828 159.179 190.132 160.434C190.437 161.689 189.655 162.95 188.393 163.243C187.144 163.533 185.895 162.766 185.594 161.525C185.293 160.284 186.054 159.033 187.297 158.724Z" fill="#191A2E"/>
<path d="M125.273 194.721C126.467 194.577 127.56 195.403 127.743 196.586C127.925 197.77 127.131 198.885 125.949 199.104C125.15 199.253 124.333 198.956 123.818 198.33C123.303 197.704 123.171 196.848 123.474 196.097C123.776 195.346 124.466 194.819 125.273 194.721Z" fill="#191A2E"/>
<path d="M62.5886 159.103C63.777 158.891 64.9147 159.672 65.1392 160.854C65.3637 162.035 64.5912 163.176 63.4074 163.411C62.6311 163.566 61.8309 163.293 61.3124 162.697C60.7939 162.101 60.6366 161.274 60.9007 160.53C61.1647 159.787 61.8092 159.242 62.5886 159.103Z" fill="#191A2E"/>
<mask id="path-19-outside-1_63_60" maskUnits="userSpaceOnUse" x="28" y="102" width="197" height="28" fill="black">
<rect fill="white" x="28" y="102" width="197" height="28"/>
<path d="M29.0625 128V104H32.0625V114.5H54.0625V104H57.0625V128H54.0625V117H32.0625V128H29.0625ZM72.5794 128.5C70.2356 128.5 68.3085 128.339 66.7981 128.016C65.2877 127.703 64.1054 127.12 63.2513 126.266C62.4075 125.411 61.8138 124.182 61.47 122.578C61.1367 120.974 60.97 118.885 60.97 116.312V104H63.97V116.312C63.97 118.083 64.0325 119.552 64.1575 120.719C64.2825 121.885 64.5169 122.818 64.8606 123.516C65.2044 124.214 65.694 124.734 66.3294 125.078C66.9752 125.422 67.8085 125.646 68.8294 125.75C69.8502 125.854 71.1002 125.906 72.5794 125.906H78.2356C79.7252 125.906 80.9752 125.854 81.9856 125.75C83.0065 125.646 83.8346 125.422 84.47 125.078C85.1158 124.734 85.6106 124.214 85.9544 123.516C86.2981 122.818 86.5325 121.885 86.6575 120.719C86.7825 119.552 86.845 118.083 86.845 116.312V104H89.845V116.312C89.845 118.885 89.6731 120.974 89.3294 122.578C88.996 124.182 88.4023 125.411 87.5481 126.266C86.7044 127.12 85.5273 127.703 84.0169 128.016C82.5065 128.339 80.5794 128.5 78.2356 128.5H72.5794ZM94.97 128V104H114.095C115.908 104 117.392 104.172 118.548 104.516C119.715 104.849 120.574 105.448 121.126 106.312C121.689 107.167 121.97 108.38 121.97 109.953C121.97 111.37 121.642 112.542 120.986 113.469C120.329 114.396 119.324 114.906 117.97 115C119.741 115.177 121.017 115.812 121.798 116.906C122.579 117.99 122.97 119.354 122.97 121C122.97 122.427 122.803 123.599 122.47 124.516C122.147 125.432 121.6 126.146 120.829 126.656C120.059 127.156 119.012 127.505 117.689 127.703C116.376 127.901 114.736 128 112.767 128H94.97ZM97.97 114H111.954C113.569 114 114.892 113.943 115.923 113.828C116.954 113.714 117.72 113.375 118.22 112.812C118.72 112.25 118.97 111.297 118.97 109.953C118.97 108.901 118.819 108.13 118.517 107.641C118.225 107.151 117.725 106.839 117.017 106.703C116.309 106.568 115.335 106.5 114.095 106.5H97.97V114ZM97.97 125.5H112.767C114.194 125.5 115.371 125.464 116.298 125.391C117.236 125.318 117.97 125.141 118.501 124.859C119.043 124.578 119.423 124.135 119.642 123.531C119.861 122.917 119.97 122.073 119.97 121C119.97 119.896 119.762 119.036 119.345 118.422C118.939 117.807 118.366 117.365 117.626 117.094C116.897 116.823 116.048 116.656 115.079 116.594C114.111 116.531 113.069 116.5 111.954 116.5H97.97V125.5ZM138.579 128.5C136.236 128.5 134.309 128.339 132.798 128.016C131.288 127.703 130.105 127.12 129.251 126.266C128.408 125.411 127.814 124.182 127.47 122.578C127.137 120.974 126.97 118.885 126.97 116.312V115.688C126.97 113.562 127.074 111.781 127.283 110.344C127.491 108.896 127.85 107.719 128.361 106.812C128.871 105.906 129.564 105.214 130.439 104.734C131.324 104.255 132.434 103.932 133.767 103.766C135.1 103.589 136.704 103.5 138.579 103.5H144.876C146.751 103.5 148.355 103.589 149.689 103.766C151.022 103.932 152.126 104.255 153.001 104.734C153.887 105.214 154.585 105.906 155.095 106.812C155.605 107.719 155.965 108.896 156.173 110.344C156.381 111.781 156.486 113.562 156.486 115.688V116.312C156.486 118.885 156.314 120.974 155.97 122.578C155.637 124.182 155.043 125.411 154.189 126.266C153.345 127.12 152.168 127.703 150.658 128.016C149.147 128.339 147.22 128.5 144.876 128.5H138.579ZM138.579 125.906H144.876C146.366 125.906 147.621 125.854 148.642 125.75C149.663 125.646 150.491 125.422 151.126 125.078C151.772 124.734 152.262 124.214 152.595 123.516C152.939 122.818 153.173 121.885 153.298 120.719C153.423 119.552 153.486 118.083 153.486 116.312V115.688C153.486 113.854 153.423 112.344 153.298 111.156C153.173 109.969 152.939 109.031 152.595 108.344C152.262 107.656 151.772 107.156 151.126 106.844C150.491 106.521 149.663 106.318 148.642 106.234C147.621 106.141 146.366 106.094 144.876 106.094H138.579C137.09 106.094 135.835 106.141 134.814 106.234C133.793 106.318 132.96 106.521 132.314 106.844C131.678 107.156 131.189 107.656 130.845 108.344C130.512 109.031 130.283 109.969 130.158 111.156C130.033 112.344 129.97 113.854 129.97 115.688V116.312C129.97 118.083 130.033 119.552 130.158 120.719C130.283 121.885 130.512 122.818 130.845 123.516C131.189 124.214 131.678 124.734 132.314 125.078C132.96 125.422 133.793 125.646 134.814 125.75C135.835 125.854 137.09 125.906 138.579 125.906ZM160.284 104H176.346C178.69 104 180.575 104.104 182.003 104.312C183.44 104.521 184.529 104.88 185.268 105.391C186.008 105.901 186.508 106.599 186.768 107.484C187.029 108.37 187.159 109.49 187.159 110.844V111.469C187.159 112.719 187.008 113.797 186.706 114.703C186.414 115.599 185.846 116.328 185.003 116.891C184.159 117.443 182.909 117.833 181.253 118.062L186.471 128H183.471L178.362 118.281C178.154 118.292 177.935 118.297 177.706 118.297C177.487 118.297 177.258 118.297 177.018 118.297H163.284V128H160.284V104ZM163.284 115.703H176.549C178.331 115.703 179.732 115.646 180.753 115.531C181.784 115.406 182.539 115.193 183.018 114.891C183.508 114.589 183.82 114.161 183.956 113.609C184.091 113.057 184.159 112.344 184.159 111.469V110.844C184.159 109.854 184.065 109.073 183.878 108.5C183.69 107.927 183.315 107.505 182.753 107.234C182.19 106.964 181.351 106.792 180.237 106.719C179.122 106.635 177.633 106.594 175.768 106.594H163.284V115.703ZM190.846 128L204.846 104H208.846L222.846 128H219.346L216.346 122.5H197.346L194.346 128H190.846ZM198.846 120H214.846L206.846 106L198.846 120Z"/>
</mask>
<path d="M29.0625 128V104H32.0625V114.5H54.0625V104H57.0625V128H54.0625V117H32.0625V128H29.0625ZM72.5794 128.5C70.2356 128.5 68.3085 128.339 66.7981 128.016C65.2877 127.703 64.1054 127.12 63.2513 126.266C62.4075 125.411 61.8138 124.182 61.47 122.578C61.1367 120.974 60.97 118.885 60.97 116.312V104H63.97V116.312C63.97 118.083 64.0325 119.552 64.1575 120.719C64.2825 121.885 64.5169 122.818 64.8606 123.516C65.2044 124.214 65.694 124.734 66.3294 125.078C66.9752 125.422 67.8085 125.646 68.8294 125.75C69.8502 125.854 71.1002 125.906 72.5794 125.906H78.2356C79.7252 125.906 80.9752 125.854 81.9856 125.75C83.0065 125.646 83.8346 125.422 84.47 125.078C85.1158 124.734 85.6106 124.214 85.9544 123.516C86.2981 122.818 86.5325 121.885 86.6575 120.719C86.7825 119.552 86.845 118.083 86.845 116.312V104H89.845V116.312C89.845 118.885 89.6731 120.974 89.3294 122.578C88.996 124.182 88.4023 125.411 87.5481 126.266C86.7044 127.12 85.5273 127.703 84.0169 128.016C82.5065 128.339 80.5794 128.5 78.2356 128.5H72.5794ZM94.97 128V104H114.095C115.908 104 117.392 104.172 118.548 104.516C119.715 104.849 120.574 105.448 121.126 106.312C121.689 107.167 121.97 108.38 121.97 109.953C121.97 111.37 121.642 112.542 120.986 113.469C120.329 114.396 119.324 114.906 117.97 115C119.741 115.177 121.017 115.812 121.798 116.906C122.579 117.99 122.97 119.354 122.97 121C122.97 122.427 122.803 123.599 122.47 124.516C122.147 125.432 121.6 126.146 120.829 126.656C120.059 127.156 119.012 127.505 117.689 127.703C116.376 127.901 114.736 128 112.767 128H94.97ZM97.97 114H111.954C113.569 114 114.892 113.943 115.923 113.828C116.954 113.714 117.72 113.375 118.22 112.812C118.72 112.25 118.97 111.297 118.97 109.953C118.97 108.901 118.819 108.13 118.517 107.641C118.225 107.151 117.725 106.839 117.017 106.703C116.309 106.568 115.335 106.5 114.095 106.5H97.97V114ZM97.97 125.5H112.767C114.194 125.5 115.371 125.464 116.298 125.391C117.236 125.318 117.97 125.141 118.501 124.859C119.043 124.578 119.423 124.135 119.642 123.531C119.861 122.917 119.97 122.073 119.97 121C119.97 119.896 119.762 119.036 119.345 118.422C118.939 117.807 118.366 117.365 117.626 117.094C116.897 116.823 116.048 116.656 115.079 116.594C114.111 116.531 113.069 116.5 111.954 116.5H97.97V125.5ZM138.579 128.5C136.236 128.5 134.309 128.339 132.798 128.016C131.288 127.703 130.105 127.12 129.251 126.266C128.408 125.411 127.814 124.182 127.47 122.578C127.137 120.974 126.97 118.885 126.97 116.312V115.688C126.97 113.562 127.074 111.781 127.283 110.344C127.491 108.896 127.85 107.719 128.361 106.812C128.871 105.906 129.564 105.214 130.439 104.734C131.324 104.255 132.434 103.932 133.767 103.766C135.1 103.589 136.704 103.5 138.579 103.5H144.876C146.751 103.5 148.355 103.589 149.689 103.766C151.022 103.932 152.126 104.255 153.001 104.734C153.887 105.214 154.585 105.906 155.095 106.812C155.605 107.719 155.965 108.896 156.173 110.344C156.381 111.781 156.486 113.562 156.486 115.688V116.312C156.486 118.885 156.314 120.974 155.97 122.578C155.637 124.182 155.043 125.411 154.189 126.266C153.345 127.12 152.168 127.703 150.658 128.016C149.147 128.339 147.22 128.5 144.876 128.5H138.579ZM138.579 125.906H144.876C146.366 125.906 147.621 125.854 148.642 125.75C149.663 125.646 150.491 125.422 151.126 125.078C151.772 124.734 152.262 124.214 152.595 123.516C152.939 122.818 153.173 121.885 153.298 120.719C153.423 119.552 153.486 118.083 153.486 116.312V115.688C153.486 113.854 153.423 112.344 153.298 111.156C153.173 109.969 152.939 109.031 152.595 108.344C152.262 107.656 151.772 107.156 151.126 106.844C150.491 106.521 149.663 106.318 148.642 106.234C147.621 106.141 146.366 106.094 144.876 106.094H138.579C137.09 106.094 135.835 106.141 134.814 106.234C133.793 106.318 132.96 106.521 132.314 106.844C131.678 107.156 131.189 107.656 130.845 108.344C130.512 109.031 130.283 109.969 130.158 111.156C130.033 112.344 129.97 113.854 129.97 115.688V116.312C129.97 118.083 130.033 119.552 130.158 120.719C130.283 121.885 130.512 122.818 130.845 123.516C131.189 124.214 131.678 124.734 132.314 125.078C132.96 125.422 133.793 125.646 134.814 125.75C135.835 125.854 137.09 125.906 138.579 125.906ZM160.284 104H176.346C178.69 104 180.575 104.104 182.003 104.312C183.44 104.521 184.529 104.88 185.268 105.391C186.008 105.901 186.508 106.599 186.768 107.484C187.029 108.37 187.159 109.49 187.159 110.844V111.469C187.159 112.719 187.008 113.797 186.706 114.703C186.414 115.599 185.846 116.328 185.003 116.891C184.159 117.443 182.909 117.833 181.253 118.062L186.471 128H183.471L178.362 118.281C178.154 118.292 177.935 118.297 177.706 118.297C177.487 118.297 177.258 118.297 177.018 118.297H163.284V128H160.284V104ZM163.284 115.703H176.549C178.331 115.703 179.732 115.646 180.753 115.531C181.784 115.406 182.539 115.193 183.018 114.891C183.508 114.589 183.82 114.161 183.956 113.609C184.091 113.057 184.159 112.344 184.159 111.469V110.844C184.159 109.854 184.065 109.073 183.878 108.5C183.69 107.927 183.315 107.505 182.753 107.234C182.19 106.964 181.351 106.792 180.237 106.719C179.122 106.635 177.633 106.594 175.768 106.594H163.284V115.703ZM190.846 128L204.846 104H208.846L222.846 128H219.346L216.346 122.5H197.346L194.346 128H190.846ZM198.846 120H214.846L206.846 106L198.846 120Z" fill="#F6F6F6"/>
<path d="M29.0625 128H28.0625V129H29.0625V128ZM29.0625 104V103H28.0625V104H29.0625ZM32.0625 104H33.0625V103H32.0625V104ZM32.0625 114.5H31.0625V115.5H32.0625V114.5ZM54.0625 114.5V115.5H55.0625V114.5H54.0625ZM54.0625 104V103H53.0625V104H54.0625ZM57.0625 104H58.0625V103H57.0625V104ZM57.0625 128V129H58.0625V128H57.0625ZM54.0625 128H53.0625V129H54.0625V128ZM54.0625 117H55.0625V116H54.0625V117ZM32.0625 117V116H31.0625V117H32.0625ZM32.0625 128V129H33.0625V128H32.0625ZM29.0625 128H30.0625V104H29.0625H28.0625V128H29.0625ZM29.0625 104V105H32.0625V104V103H29.0625V104ZM32.0625 104H31.0625V114.5H32.0625H33.0625V104H32.0625ZM32.0625 114.5V115.5H54.0625V114.5V113.5H32.0625V114.5ZM54.0625 114.5H55.0625V104H54.0625H53.0625V114.5H54.0625ZM54.0625 104V105H57.0625V104V103H54.0625V104ZM57.0625 104H56.0625V128H57.0625H58.0625V104H57.0625ZM57.0625 128V127H54.0625V128V129H57.0625V128ZM54.0625 128H55.0625V117H54.0625H53.0625V128H54.0625ZM54.0625 117V116H32.0625V117V118H54.0625V117ZM32.0625 117H31.0625V128H32.0625H33.0625V117H32.0625ZM32.0625 128V127H29.0625V128V129H32.0625V128ZM66.7981 128.016L67.0072 127.038L67.0007 127.036L66.7981 128.016ZM63.2513 126.266L62.5398 126.968L62.5441 126.973L63.2513 126.266ZM61.47 122.578L60.4909 122.782L60.4922 122.788L61.47 122.578ZM60.97 104V103H59.97V104H60.97ZM63.97 104H64.97V103H63.97V104ZM66.3294 125.078L65.8535 125.958L65.8595 125.961L66.3294 125.078ZM81.9856 125.75L81.8841 124.755L81.8831 124.755L81.9856 125.75ZM84.47 125.078L84.0001 124.195L83.9942 124.199L84.47 125.078ZM86.845 104V103H85.845V104H86.845ZM89.845 104H90.845V103H89.845V104ZM89.3294 122.578L88.3516 122.369L88.3503 122.375L89.3294 122.578ZM87.5481 126.266L86.841 125.559L86.8367 125.563L87.5481 126.266ZM84.0169 128.016L83.8143 127.036L83.8078 127.038L84.0169 128.016ZM72.5794 128.5V127.5C70.2738 127.5 68.4233 127.34 67.0072 127.038L66.7981 128.016L66.5891 128.994C68.1937 129.337 70.1975 129.5 72.5794 129.5V128.5ZM66.7981 128.016L67.0007 127.036C65.6289 126.753 64.6409 126.241 63.9584 125.559L63.2513 126.266L62.5441 126.973C63.5699 127.999 64.9465 128.654 66.5955 128.995L66.7981 128.016ZM63.2513 126.266L63.9627 125.563C63.2936 124.886 62.7658 123.852 62.4478 122.369L61.47 122.578L60.4922 122.788C60.8617 124.512 61.5214 125.937 62.5398 126.968L63.2513 126.266ZM61.47 122.578L62.4491 122.375C62.1352 120.864 61.97 118.851 61.97 116.312H60.97H59.97C59.97 118.92 60.1381 121.084 60.4909 122.782L61.47 122.578ZM60.97 116.312H61.97V104H60.97H59.97V116.312H60.97ZM60.97 104V105H63.97V104V103H60.97V104ZM63.97 104H62.97V116.312H63.97H64.97V104H63.97ZM63.97 116.312H62.97C62.97 118.103 63.033 119.61 63.1632 120.825L64.1575 120.719L65.1518 120.612C65.032 119.494 64.97 118.064 64.97 116.312H63.97ZM64.1575 120.719L63.1632 120.825C63.295 122.055 63.5487 123.115 63.9635 123.957L64.8606 123.516L65.7577 123.074C65.4851 122.52 65.27 121.716 65.1518 120.612L64.1575 120.719ZM64.8606 123.516L63.9635 123.957C64.3915 124.826 65.0215 125.508 65.8536 125.958L66.3294 125.078L66.8052 124.199C66.3664 123.961 66.0173 123.601 65.7577 123.074L64.8606 123.516ZM66.3294 125.078L65.8595 125.961C66.6558 126.385 67.6263 126.632 68.7279 126.745L68.8294 125.75L68.9309 124.755C67.9908 124.659 67.2946 124.459 66.7992 124.195L66.3294 125.078ZM68.8294 125.75L68.7279 126.745C69.7935 126.854 71.0797 126.906 72.5794 126.906V125.906V124.906C71.1207 124.906 69.9069 124.855 68.9309 124.755L68.8294 125.75ZM72.5794 125.906V126.906H78.2356V125.906V124.906H72.5794V125.906ZM78.2356 125.906V126.906C79.7453 126.906 81.032 126.854 82.0882 126.745L81.9856 125.75L81.8831 124.755C80.9184 124.855 79.7052 124.906 78.2356 124.906V125.906ZM81.9856 125.75L82.0871 126.745C83.1882 126.632 84.1566 126.385 84.9458 125.958L84.47 125.078L83.9942 124.199C83.5126 124.459 82.8248 124.659 81.8841 124.755L81.9856 125.75ZM84.47 125.078L84.9399 125.961C85.7829 125.512 86.4213 124.831 86.8515 123.957L85.9544 123.516L85.0573 123.074C84.8 123.596 84.4488 123.957 84.0002 124.195L84.47 125.078ZM85.9544 123.516L86.8515 123.957C87.2663 123.115 87.52 122.055 87.6518 120.825L86.6575 120.719L85.6632 120.612C85.545 121.716 85.3299 122.52 85.0573 123.074L85.9544 123.516ZM86.6575 120.719L87.6518 120.825C87.782 119.61 87.845 118.103 87.845 116.312H86.845H85.845C85.845 118.064 85.783 119.494 85.6632 120.612L86.6575 120.719ZM86.845 116.312H87.845V104H86.845H85.845V116.312H86.845ZM86.845 104V105H89.845V104V103H86.845V104ZM89.845 104H88.845V116.312H89.845H90.845V104H89.845ZM89.845 116.312H88.845C88.845 118.85 88.6747 120.861 88.3516 122.369L89.3294 122.578L90.3072 122.788C90.6715 121.087 90.845 118.921 90.845 116.312H89.845ZM89.3294 122.578L88.3503 122.375C88.0429 123.854 87.5163 124.883 86.841 125.559L87.5481 126.266L88.2552 126.973C89.2882 125.94 89.9492 124.51 90.3085 122.782L89.3294 122.578ZM87.5481 126.266L86.8367 125.563C86.1661 126.242 85.1861 126.753 83.8143 127.036L84.0169 128.016L84.2195 128.995C85.8685 128.654 87.2426 127.998 88.2596 126.968L87.5481 126.266ZM84.0169 128.016L83.8078 127.038C82.3917 127.34 80.5412 127.5 78.2356 127.5V128.5V129.5C80.6175 129.5 82.6213 129.337 84.2259 128.994L84.0169 128.016ZM78.2356 128.5V127.5H72.5794V128.5V129.5H78.2356V128.5ZM94.97 128H93.97V129H94.97V128ZM94.97 104V103H93.97V104H94.97ZM118.548 104.516L118.263 105.474L118.273 105.477L118.548 104.516ZM121.126 106.312L120.283 106.851L120.291 106.862L121.126 106.312ZM117.97 115L117.901 114.002L117.87 115.995L117.97 115ZM121.798 116.906L120.984 117.487L120.987 117.491L121.798 116.906ZM122.47 124.516L121.53 124.174L121.527 124.183L122.47 124.516ZM120.829 126.656L121.374 127.495L121.381 127.49L120.829 126.656ZM117.689 127.703L117.541 126.714L117.54 126.714L117.689 127.703ZM97.97 114H96.97V115H97.97V114ZM118.517 107.641L117.658 108.152L117.662 108.159L117.666 108.166L118.517 107.641ZM97.97 106.5V105.5H96.97V106.5H97.97ZM97.97 125.5H96.97V126.5H97.97V125.5ZM116.298 125.391L116.221 124.394L116.22 124.394L116.298 125.391ZM118.501 124.859L118.04 123.972L118.033 123.976L118.501 124.859ZM119.642 123.531L120.582 123.872L120.584 123.867L119.642 123.531ZM119.345 118.422L118.511 118.973L118.517 118.983L119.345 118.422ZM117.626 117.094L117.278 118.031L117.282 118.033L117.626 117.094ZM97.97 116.5V115.5H96.97V116.5H97.97ZM94.97 128H95.97V104H94.97H93.97V128H94.97ZM94.97 104V105H114.095V104V103H94.97V104ZM114.095 104V105C115.854 105 117.233 105.168 118.263 105.474L118.548 104.516L118.833 103.557C117.55 103.176 115.961 103 114.095 103V104ZM118.548 104.516L118.273 105.477C119.251 105.756 119.886 106.228 120.283 106.851L121.126 106.312L121.969 105.774C121.262 104.668 120.179 103.942 118.823 103.554L118.548 104.516ZM121.126 106.312L120.291 106.862C120.703 107.487 120.97 108.478 120.97 109.953H121.97H122.97C122.97 108.282 122.675 106.846 121.961 105.763L121.126 106.312ZM121.97 109.953H120.97C120.97 111.214 120.679 112.171 120.169 112.891L120.986 113.469L121.802 114.047C122.604 112.913 122.97 111.525 122.97 109.953H121.97ZM120.986 113.469L120.169 112.891C119.721 113.525 119.02 113.925 117.901 114.002L117.97 115L118.039 115.998C119.628 115.888 120.938 115.267 121.802 114.047L120.986 113.469ZM117.97 115L117.87 115.995C119.453 116.153 120.42 116.698 120.984 117.487L121.798 116.906L122.612 116.325C121.613 114.927 120.029 114.201 118.07 114.005L117.97 115ZM121.798 116.906L120.987 117.491C121.619 118.368 121.97 119.515 121.97 121H122.97H123.97C123.97 119.194 123.539 117.611 122.609 116.321L121.798 116.906ZM122.97 121H121.97C121.97 122.36 121.81 123.405 121.53 124.174L122.47 124.516L123.41 124.857C123.797 123.793 123.97 122.495 123.97 121H122.97ZM122.47 124.516L121.527 124.183C121.272 124.906 120.857 125.439 120.277 125.822L120.829 126.656L121.381 127.49C122.343 126.853 123.022 125.959 123.413 124.848L122.47 124.516ZM120.829 126.656L120.285 125.817C119.676 126.212 118.782 126.528 117.541 126.714L117.689 127.703L117.837 128.692C119.242 128.482 120.441 128.1 121.374 127.495L120.829 126.656ZM117.689 127.703L117.54 126.714C116.294 126.902 114.707 127 112.767 127V128V129C114.764 129 116.459 128.9 117.838 128.692L117.689 127.703ZM112.767 128V127H94.97V128V129H112.767V128ZM97.97 114V115H111.954V114V113H97.97V114ZM111.954 114V115C113.588 115 114.951 114.942 116.034 114.822L115.923 113.828L115.813 112.834C114.832 112.943 113.55 113 111.954 113V114ZM115.923 113.828L116.034 114.822C117.217 114.691 118.25 114.284 118.967 113.477L118.22 112.812L117.473 112.148C117.19 112.466 116.692 112.737 115.813 112.834L115.923 113.828ZM118.22 112.812L118.967 113.477C119.717 112.634 119.97 111.368 119.97 109.953H118.97H117.97C117.97 111.225 117.723 111.866 117.473 112.148L118.22 112.812ZM118.97 109.953H119.97C119.97 108.847 119.819 107.846 119.368 107.116L118.517 107.641L117.666 108.166C117.819 108.414 117.97 108.955 117.97 109.953H118.97ZM118.517 107.641L119.376 107.129C118.901 106.332 118.114 105.895 117.205 105.721L117.017 106.703L116.829 107.685C117.337 107.782 117.549 107.971 117.658 108.152L118.517 107.641ZM117.017 106.703L117.205 105.721C116.406 105.568 115.36 105.5 114.095 105.5V106.5V107.5C115.31 107.5 116.211 107.567 116.829 107.685L117.017 106.703ZM114.095 106.5V105.5H97.97V106.5V107.5H114.095V106.5ZM97.97 106.5H96.97V114H97.97H98.97V106.5H97.97ZM97.97 125.5V126.5H112.767V125.5V124.5H97.97V125.5ZM112.767 125.5V126.5C114.208 126.5 115.414 126.463 116.377 126.388L116.298 125.391L116.22 124.394C115.329 124.464 114.18 124.5 112.767 124.5V125.5ZM116.298 125.391L116.376 126.388C117.381 126.309 118.268 126.114 118.969 125.743L118.501 124.859L118.033 123.976C117.672 124.167 117.09 124.326 116.221 124.394L116.298 125.391ZM118.501 124.859L118.962 125.747C119.739 125.343 120.283 124.698 120.582 123.872L119.642 123.531L118.702 123.191C118.563 123.573 118.347 123.813 118.04 123.972L118.501 124.859ZM119.642 123.531L120.584 123.867C120.858 123.097 120.97 122.123 120.97 121H119.97H118.97C118.97 122.022 118.863 122.736 118.7 123.196L119.642 123.531ZM119.97 121H120.97C120.97 119.788 120.744 118.703 120.173 117.861L119.345 118.422L118.517 118.983C118.779 119.369 118.97 120.004 118.97 121H119.97ZM119.345 118.422L120.179 117.87C119.647 117.065 118.896 116.494 117.97 116.155L117.626 117.094L117.282 118.033C117.836 118.236 118.231 118.55 118.511 118.973L119.345 118.422ZM117.626 117.094L117.974 116.156C117.135 115.844 116.187 115.663 115.144 115.596L115.079 116.594L115.015 117.592C115.91 117.649 116.659 117.801 117.278 118.031L117.626 117.094ZM115.079 116.594L115.144 115.596C114.151 115.532 113.087 115.5 111.954 115.5V116.5V117.5C113.051 117.5 114.071 117.531 115.015 117.592L115.079 116.594ZM111.954 116.5V115.5H97.97V116.5V117.5H111.954V116.5ZM97.97 116.5H96.97V125.5H97.97H98.97V116.5H97.97ZM132.798 128.016L133.007 127.038L133.001 127.036L132.798 128.016ZM129.251 126.266L128.54 126.968L128.544 126.973L129.251 126.266ZM127.47 122.578L126.491 122.782L126.492 122.788L127.47 122.578ZM127.283 110.344L128.272 110.487L128.272 110.486L127.283 110.344ZM130.439 104.734L129.963 103.855L129.958 103.857L130.439 104.734ZM133.767 103.766L133.891 104.758L133.899 104.757L133.767 103.766ZM149.689 103.766L149.557 104.757L149.565 104.758L149.689 103.766ZM153.001 104.734L152.521 105.611L152.525 105.614L153.001 104.734ZM156.173 110.344L155.183 110.486L155.183 110.487L156.173 110.344ZM155.97 122.578L154.992 122.369L154.991 122.375L155.97 122.578ZM154.189 126.266L153.482 125.559L153.477 125.563L154.189 126.266ZM150.658 128.016L150.455 127.036L150.448 127.038L150.658 128.016ZM151.126 125.078L150.656 124.195L150.65 124.199L151.126 125.078ZM152.595 123.516L151.698 123.074L151.693 123.085L152.595 123.516ZM152.595 108.344L151.695 108.78L151.701 108.791L152.595 108.344ZM151.126 106.844L150.673 107.735L150.682 107.74L150.691 107.744L151.126 106.844ZM148.642 106.234L148.55 107.23L148.561 107.231L148.642 106.234ZM134.814 106.234L134.895 107.231L134.905 107.23L134.814 106.234ZM132.314 106.844L132.755 107.741L132.761 107.738L132.314 106.844ZM130.845 108.344L129.951 107.897L129.945 107.907L130.845 108.344ZM130.845 123.516L129.943 123.947L129.948 123.957L130.845 123.516ZM132.314 125.078L131.838 125.958L131.844 125.961L132.314 125.078ZM138.579 128.5V127.5C136.274 127.5 134.423 127.34 133.007 127.038L132.798 128.016L132.589 128.994C134.194 129.337 136.197 129.5 138.579 129.5V128.5ZM132.798 128.016L133.001 127.036C131.629 126.753 130.641 126.241 129.958 125.559L129.251 126.266L128.544 126.973C129.57 127.999 130.947 128.654 132.596 128.995L132.798 128.016ZM129.251 126.266L129.963 125.563C129.294 124.886 128.766 123.852 128.448 122.369L127.47 122.578L126.492 122.788C126.862 124.512 127.521 125.937 128.54 126.968L129.251 126.266ZM127.47 122.578L128.449 122.375C128.135 120.864 127.97 118.851 127.97 116.312H126.97H125.97C125.97 118.92 126.138 121.084 126.491 122.782L127.47 122.578ZM126.97 116.312H127.97V115.688H126.97H125.97V116.312H126.97ZM126.97 115.688H127.97C127.97 113.591 128.073 111.861 128.272 110.487L127.283 110.344L126.293 110.2C126.075 111.702 125.97 113.534 125.97 115.688H126.97ZM127.283 110.344L128.272 110.486C128.47 109.115 128.801 108.068 129.232 107.303L128.361 106.812L127.489 106.322C126.899 107.37 126.512 108.677 126.293 110.201L127.283 110.344ZM128.361 106.812L129.232 107.303C129.655 106.552 130.215 105.997 130.919 105.611L130.439 104.734L129.958 103.857C128.912 104.43 128.087 105.26 127.489 106.322L128.361 106.812ZM130.439 104.734L130.915 105.614C131.661 105.21 132.642 104.914 133.891 104.758L133.767 103.766L133.643 102.773C132.225 102.951 130.987 103.3 129.963 103.855L130.439 104.734ZM133.767 103.766L133.899 104.757C135.175 104.587 136.733 104.5 138.579 104.5V103.5V102.5C136.676 102.5 135.025 102.59 133.635 102.774L133.767 103.766ZM138.579 103.5V104.5H144.876V103.5V102.5H138.579V103.5ZM144.876 103.5V104.5C146.723 104.5 148.281 104.587 149.557 104.757L149.689 103.766L149.82 102.774C148.43 102.59 146.78 102.5 144.876 102.5V103.5ZM149.689 103.766L149.565 104.758C150.814 104.914 151.787 105.21 152.521 105.611L153.001 104.734L153.482 103.857C152.465 103.301 151.23 102.951 149.813 102.773L149.689 103.766ZM153.001 104.734L152.525 105.614C153.239 106 153.803 106.556 154.224 107.303L155.095 106.812L155.966 106.322C155.367 105.257 154.534 104.427 153.477 103.855L153.001 104.734ZM155.095 106.812L154.224 107.303C154.654 108.068 154.986 109.115 155.183 110.486L156.173 110.344L157.163 110.201C156.944 108.677 156.557 107.37 155.966 106.322L155.095 106.812ZM156.173 110.344L155.183 110.487C155.383 111.861 155.486 113.591 155.486 115.688H156.486H157.486C157.486 113.534 157.38 111.702 157.163 110.2L156.173 110.344ZM156.486 115.688H155.486V116.312H156.486H157.486V115.688H156.486ZM156.486 116.312H155.486C155.486 118.85 155.315 120.861 154.992 122.369L155.97 122.578L156.948 122.788C157.312 121.087 157.486 118.921 157.486 116.312H156.486ZM155.97 122.578L154.991 122.375C154.683 123.854 154.157 124.883 153.482 125.559L154.189 126.266L154.896 126.973C155.929 125.94 156.59 124.51 156.949 122.782L155.97 122.578ZM154.189 126.266L153.477 125.563C152.807 126.242 151.827 126.753 150.455 127.036L150.658 128.016L150.86 128.995C152.509 128.654 153.883 127.998 154.9 126.968L154.189 126.266ZM150.658 128.016L150.448 127.038C149.032 127.34 147.182 127.5 144.876 127.5V128.5V129.5C147.258 129.5 149.262 129.337 150.867 128.994L150.658 128.016ZM144.876 128.5V127.5H138.579V128.5V129.5H144.876V128.5ZM138.579 125.906V126.906H144.876V125.906V124.906H138.579V125.906ZM144.876 125.906V126.906C146.386 126.906 147.678 126.854 148.743 126.745L148.642 125.75L148.54 124.755C147.565 124.855 146.346 124.906 144.876 124.906V125.906ZM148.642 125.75L148.743 126.745C149.844 126.632 150.813 126.385 151.602 125.958L151.126 125.078L150.65 124.199C150.169 124.459 149.481 124.659 148.54 124.755L148.642 125.75ZM151.126 125.078L151.596 125.961C152.442 125.511 153.077 124.826 153.497 123.947L152.595 123.516L151.693 123.085C151.446 123.601 151.102 123.958 150.656 124.195L151.126 125.078ZM152.595 123.516L153.492 123.957C153.907 123.115 154.161 122.055 154.292 120.825L153.298 120.719L152.304 120.612C152.186 121.716 151.971 122.52 151.698 123.074L152.595 123.516ZM153.298 120.719L154.292 120.825C154.423 119.61 154.486 118.103 154.486 116.312H153.486H152.486C152.486 118.064 152.424 119.494 152.304 120.612L153.298 120.719ZM153.486 116.312H154.486V115.688H153.486H152.486V116.312H153.486ZM153.486 115.688H154.486C154.486 113.836 154.423 112.287 154.293 111.052L153.298 111.156L152.304 111.261C152.424 112.4 152.486 113.873 152.486 115.688H153.486ZM153.298 111.156L154.293 111.052C154.161 109.803 153.908 108.734 153.489 107.897L152.595 108.344L151.701 108.791C151.969 109.329 152.185 110.134 152.304 111.261L153.298 111.156ZM152.595 108.344L153.495 107.907C153.07 107.032 152.424 106.361 151.562 105.944L151.126 106.844L150.691 107.744C151.12 107.952 151.453 108.281 151.695 108.78L152.595 108.344ZM151.126 106.844L151.579 105.952C150.789 105.551 149.822 105.327 148.723 105.238L148.642 106.234L148.561 107.231C149.504 107.308 150.193 107.491 150.673 107.735L151.126 106.844ZM148.642 106.234L148.733 105.239C147.672 105.141 146.384 105.094 144.876 105.094V106.094V107.094C146.348 107.094 147.57 107.14 148.55 107.23L148.642 106.234ZM144.876 106.094V105.094H138.579V106.094V107.094H144.876V106.094ZM138.579 106.094V105.094C137.072 105.094 135.784 105.141 134.722 105.239L134.814 106.234L134.905 107.23C135.885 107.14 137.108 107.094 138.579 107.094V106.094ZM134.814 106.234L134.732 105.238C133.633 105.327 132.664 105.551 131.867 105.949L132.314 106.844L132.761 107.738C133.255 107.491 133.952 107.308 134.895 107.231L134.814 106.234ZM132.314 106.844L131.872 105.946C131.024 106.364 130.383 107.031 129.951 107.897L130.845 108.344L131.739 108.791C131.994 108.281 132.333 107.949 132.755 107.741L132.314 106.844ZM130.845 108.344L129.945 107.907C129.541 108.741 129.294 109.806 129.163 111.052L130.158 111.156L131.152 111.261C131.271 110.131 131.482 109.322 131.745 108.78L130.845 108.344ZM130.158 111.156L129.163 111.052C129.033 112.287 128.97 113.836 128.97 115.688H129.97H130.97C130.97 113.873 131.032 112.4 131.152 111.261L130.158 111.156ZM129.97 115.688H128.97V116.312H129.97H130.97V115.688H129.97ZM129.97 116.312H128.97C128.97 118.103 129.033 119.61 129.163 120.825L130.158 120.719L131.152 120.612C131.032 119.494 130.97 118.064 130.97 116.312H129.97ZM130.158 120.719L129.163 120.825C129.295 122.052 129.542 123.108 129.943 123.947L130.845 123.516L131.747 123.085C131.481 122.527 131.27 121.718 131.152 120.612L130.158 120.719ZM130.845 123.516L129.948 123.957C130.376 124.826 131.006 125.508 131.838 125.958L132.314 125.078L132.79 124.199C132.351 123.961 132.002 123.601 131.742 123.074L130.845 123.516ZM132.314 125.078L131.844 125.961C132.64 126.385 133.611 126.632 134.712 126.745L134.814 125.75L134.915 124.755C133.975 124.659 133.279 124.459 132.784 124.195L132.314 125.078ZM134.814 125.75L134.712 126.745C135.778 126.854 137.07 126.906 138.579 126.906V125.906V124.906C137.11 124.906 135.891 124.855 134.915 124.755L134.814 125.75ZM160.284 104V103H159.284V104H160.284ZM182.003 104.312L181.858 105.302L181.859 105.302L182.003 104.312ZM186.706 114.703L185.757 114.387L185.755 114.394L186.706 114.703ZM185.003 116.891L185.55 117.727L185.557 117.723L185.003 116.891ZM181.253 118.062L181.115 117.072L179.705 117.267L180.367 118.527L181.253 118.062ZM186.471 128V129H188.126L187.357 127.535L186.471 128ZM183.471 128L182.586 128.465L182.867 129H183.471V128ZM178.362 118.281L179.247 117.816L178.95 117.251L178.312 117.282L178.362 118.281ZM163.284 118.297V117.297H162.284V118.297H163.284ZM163.284 128V129H164.284V128H163.284ZM160.284 128H159.284V129H160.284V128ZM163.284 115.703H162.284V116.703H163.284V115.703ZM180.753 115.531L180.864 116.525L180.873 116.524L180.753 115.531ZM183.018 114.891L182.493 114.04L182.485 114.045L183.018 114.891ZM180.237 106.719L180.162 107.716L180.172 107.717L180.237 106.719ZM163.284 106.594V105.594H162.284V106.594H163.284ZM160.284 104V105H176.346V104V103H160.284V104ZM176.346 104V105C178.668 105 180.499 105.104 181.858 105.302L182.003 104.312L182.147 103.323C180.652 103.105 178.712 103 176.346 103V104ZM182.003 104.312L181.859 105.302C183.228 105.5 184.142 105.829 184.7 106.214L185.268 105.391L185.836 104.568C184.915 103.932 183.652 103.541 182.146 103.323L182.003 104.312ZM185.268 105.391L184.7 106.214C185.246 106.59 185.611 107.094 185.809 107.767L186.768 107.484L187.727 107.202C187.404 106.103 186.77 105.212 185.836 104.568L185.268 105.391ZM186.768 107.484L185.809 107.767C186.033 108.528 186.159 109.545 186.159 110.844H187.159H188.159C188.159 109.434 188.024 108.211 187.727 107.202L186.768 107.484ZM187.159 110.844H186.159V111.469H187.159H188.159V110.844H187.159ZM187.159 111.469H186.159C186.159 112.643 186.016 113.609 185.757 114.387L186.706 114.703L187.654 115.019C187.999 113.985 188.159 112.795 188.159 111.469H187.159ZM186.706 114.703L185.755 114.394C185.538 115.059 185.12 115.611 184.448 116.059L185.003 116.891L185.557 117.723C186.573 117.046 187.29 116.139 187.656 115.013L186.706 114.703ZM185.003 116.891L184.455 116.054C183.791 116.489 182.71 116.851 181.115 117.072L181.253 118.062L181.39 119.053C183.108 118.815 184.527 118.397 185.55 117.727L185.003 116.891ZM181.253 118.062L180.367 118.527L185.586 128.465L186.471 128L187.357 127.535L182.138 117.598L181.253 118.062ZM186.471 128V127H183.471V128V129H186.471V128ZM183.471 128L184.356 127.535L179.247 117.816L178.362 118.281L177.477 118.747L182.586 128.465L183.471 128ZM178.362 118.281L178.312 117.282C178.122 117.292 177.92 117.297 177.706 117.297V118.297V119.297C177.95 119.297 178.185 119.291 178.412 119.28L178.362 118.281ZM177.706 118.297V117.297C177.705 117.297 177.705 117.297 177.704 117.297C177.704 117.297 177.703 117.297 177.703 117.297C177.703 117.297 177.702 117.297 177.702 117.297C177.701 117.297 177.701 117.297 177.7 117.297C177.7 117.297 177.7 117.297 177.699 117.297C177.699 117.297 177.698 117.297 177.698 117.297C177.698 117.297 177.697 117.297 177.697 117.297C177.696 117.297 177.696 117.297 177.695 117.297C177.695 117.297 177.695 117.297 177.694 117.297C177.694 117.297 177.693 117.297 177.693 117.297C177.692 117.297 177.692 117.297 177.692 117.297C177.691 117.297 177.691 117.297 177.69 117.297C177.69 117.297 177.689 117.297 177.689 117.297C177.689 117.297 177.688 117.297 177.688 117.297C177.687 117.297 177.687 117.297 177.686 117.297C177.686 117.297 177.686 117.297 177.685 117.297C177.685 117.297 177.684 117.297 177.684 117.297C177.683 117.297 177.683 117.297 177.683 117.297C177.682 117.297 177.682 117.297 177.681 117.297C177.681 117.297 177.68 117.297 177.68 117.297C177.68 117.297 177.679 117.297 177.679 117.297C177.678 117.297 177.678 117.297 177.677 117.297C177.677 117.297 177.677 117.297 177.676 117.297C177.676 117.297 177.675 117.297 177.675 117.297C177.674 117.297 177.674 117.297 177.674 117.297C177.673 117.297 177.673 117.297 177.672 117.297C177.672 117.297 177.671 117.297 177.671 117.297C177.671 117.297 177.67 117.297 177.67 117.297C177.669 117.297 177.669 117.297 177.668 117.297C177.668 117.297 177.667 117.297 177.667 117.297C177.667 117.297 177.666 117.297 177.666 117.297C177.665 117.297 177.665 117.297 177.664 117.297C177.664 117.297 177.664 117.297 177.663 117.297C177.663 117.297 177.662 117.297 177.662 117.297C177.661 117.297 177.661 117.297 177.661 117.297C177.66 117.297 177.66 117.297 177.659 117.297C177.659 117.297 177.658 117.297 177.658 117.297C177.658 117.297 177.657 117.297 177.657 117.297C177.656 117.297 177.656 117.297 177.655 117.297C177.655 117.297 177.655 117.297 177.654 117.297C177.654 117.297 177.653 117.297 177.653 117.297C177.652 117.297 177.652 117.297 177.652 117.297C177.651 117.297 177.651 117.297 177.65 117.297C177.65 117.297 177.649 117.297 177.649 117.297C177.649 117.297 177.648 117.297 177.648 117.297C177.647 117.297 177.647 117.297 177.646 117.297C177.646 117.297 177.646 117.297 177.645 117.297C177.645 117.297 177.644 117.297 177.644 117.297C177.643 117.297 177.643 117.297 177.643 117.297C177.642 117.297 177.642 117.297 177.641 117.297C177.641 117.297 177.64 117.297 177.64 117.297C177.64 117.297 177.639 117.297 177.639 117.297C177.638 117.297 177.638 117.297 177.637 117.297C177.637 117.297 177.636 117.297 177.636 117.297C177.636 117.297 177.635 117.297 177.635 117.297C177.634 117.297 177.634 117.297 177.633 117.297C177.633 117.297 177.633 117.297 177.632 117.297C177.632 117.297 177.631 117.297 177.631 117.297C177.63 117.297 177.63 117.297 177.63 117.297C177.629 117.297 177.629 117.297 177.628 117.297C177.628 117.297 177.627 117.297 177.627 117.297C177.627 117.297 177.626 117.297 177.626 117.297C177.625 117.297 177.625 117.297 177.624 117.297C177.624 117.297 177.624 117.297 177.623 117.297C177.623 117.297 177.622 117.297 177.622 117.297C177.621 117.297 177.621 117.297 177.621 117.297C177.62 117.297 177.62 117.297 177.619 117.297C177.619 117.297 177.618 117.297 177.618 117.297C177.617 117.297 177.617 117.297 177.617 117.297C177.616 117.297 177.616 117.297 177.615 117.297C177.615 117.297 177.614 117.297 177.614 117.297C177.614 117.297 177.613 117.297 177.613 117.297C177.612 117.297 177.612 117.297 177.611 117.297C177.611 117.297 177.611 117.297 177.61 117.297C177.61 117.297 177.609 117.297 177.609 117.297C177.608 117.297 177.608 117.297 177.608 117.297C177.607 117.297 177.607 117.297 177.606 117.297C177.606 117.297 177.605 117.297 177.605 117.297C177.604 117.297 177.604 117.297 177.604 117.297C177.603 117.297 177.603 117.297 177.602 117.297C177.602 117.297 177.601 117.297 177.601 117.297C177.601 117.297 177.6 117.297 177.6 117.297C177.599 117.297 177.599 117.297 177.598 117.297C177.598 117.297 177.598 117.297 177.597 117.297C177.597 117.297 177.596 117.297 177.596 117.297C177.595 117.297 177.595 117.297 177.595 117.297C177.594 117.297 177.594 117.297 177.593 117.297C177.593 117.297 177.592 117.297 177.592 117.297C177.591 117.297 177.591 117.297 177.591 117.297C177.59 117.297 177.59 117.297 177.589 117.297C177.589 117.297 177.588 117.297 177.588 117.297C177.588 117.297 177.587 117.297 177.587 117.297C177.586 117.297 177.586 117.297 177.585 117.297C177.585 117.297 177.585 117.297 177.584 117.297C177.584 117.297 177.583 117.297 177.583 117.297C177.582 117.297 177.582 117.297 177.581 117.297C177.581 117.297 177.581 117.297 177.58 117.297C177.58 117.297 177.579 117.297 177.579 117.297C177.578 117.297 177.578 117.297 177.578 117.297C177.577 117.297 177.577 117.297 177.576 117.297C177.576 117.297 177.575 117.297 177.575 117.297C177.575 117.297 177.574 117.297 177.574 117.297C177.573 117.297 177.573 117.297 177.572 117.297C177.572 117.297 177.571 117.297 177.571 117.297C177.571 117.297 177.57 117.297 177.57 117.297C177.569 117.297 177.569 117.297 177.568 117.297C177.568 117.297 177.568 117.297 177.567 117.297C177.567 117.297 177.566 117.297 177.566 117.297C177.565 117.297 177.565 117.297 177.565 117.297C177.564 117.297 177.564 117.297 177.563 117.297C177.563 117.297 177.562 117.297 177.562 117.297C177.561 117.297 177.561 117.297 177.561 117.297C177.56 117.297 177.56 117.297 177.559 117.297C177.559 117.297 177.558 117.297 177.558 117.297C177.558 117.297 177.557 117.297 177.557 117.297C177.556 117.297 177.556 117.297 177.555 117.297C177.555 117.297 177.554 117.297 177.554 117.297C177.554 117.297 177.553 117.297 177.553 117.297C177.552 117.297 177.552 117.297 177.551 117.297C177.551 117.297 177.551 117.297 177.55 117.297C177.55 117.297 177.549 117.297 177.549 117.297C177.548 117.297 177.548 117.297 177.547 117.297C177.547 117.297 177.547 117.297 177.546 117.297C177.546 117.297 177.545 117.297 177.545 117.297C177.544 117.297 177.544 117.297 177.544 117.297C177.543 117.297 177.543 117.297 177.542 117.297C177.542 117.297 177.541 117.297 177.541 117.297C177.54 117.297 177.54 117.297 177.54 117.297C177.539 117.297 177.539 117.297 177.538 117.297C177.538 117.297 177.537 117.297 177.537 117.297C177.537 117.297 177.536 117.297 177.536 117.297C177.535 117.297 177.535 117.297 177.534 117.297C177.534 117.297 177.533 117.297 177.533 117.297C177.533 117.297 177.532 117.297 177.532 117.297C177.531 117.297 177.531 117.297 177.53 117.297C177.53 117.297 177.53 117.297 177.529 117.297C177.529 117.297 177.528 117.297 177.528 117.297C177.527 117.297 177.527 117.297 177.526 117.297C177.526 117.297 177.526 117.297 177.525 117.297C177.525 117.297 177.524 117.297 177.524 117.297C177.523 117.297 177.523 117.297 177.523 117.297C177.522 117.297 177.522 117.297 177.521 117.297C177.521 117.297 177.52 117.297 177.52 117.297C177.519 117.297 177.519 117.297 177.519 117.297C177.518 117.297 177.518 117.297 177.517 117.297C177.517 117.297 177.516 117.297 177.516 117.297C177.516 117.297 177.515 117.297 177.515 117.297C177.514 117.297 177.514 117.297 177.513 117.297C177.513 117.297 177.512 117.297 177.512 117.297C177.512 117.297 177.511 117.297 177.511 117.297C177.51 117.297 177.51 117.297 177.509 117.297C177.509 117.297 177.508 117.297 177.508 117.297C177.508 117.297 177.507 117.297 177.507 117.297C177.506 117.297 177.506 117.297 177.505 117.297C177.505 117.297 177.505 117.297 177.504 117.297C177.504 117.297 177.503 117.297 177.503 117.297C177.502 117.297 177.502 117.297 177.501 117.297C177.501 117.297 177.501 117.297 177.5 117.297C177.5 117.297 177.499 117.297 177.499 117.297C177.498 117.297 177.498 117.297 177.497 117.297C177.497 117.297 177.497 117.297 177.496 117.297C177.496 117.297 177.495 117.297 177.495 117.297C177.494 117.297 177.494 117.297 177.494 117.297C177.493 117.297 177.493 117.297 177.492 117.297C177.492 117.297 177.491 117.297 177.491 117.297C177.49 117.297 177.49 117.297 177.49 117.297C177.489 117.297 177.489 117.297 177.488 117.297C177.488 117.297 177.487 117.297 177.487 117.297C177.486 117.297 177.486 117.297 177.486 117.297C177.485 117.297 177.485 117.297 177.484 117.297C177.484 117.297 177.483 117.297 177.483 117.297C177.483 117.297 177.482 117.297 177.482 117.297C177.481 117.297 177.481 117.297 177.48 117.297C177.48 117.297 177.479 117.297 177.479 117.297C177.479 117.297 177.478 117.297 177.478 117.297C177.477 117.297 177.477 117.297 177.476 117.297C177.476 117.297 177.475 117.297 177.475 117.297C177.475 117.297 177.474 117.297 177.474 117.297C177.473 117.297 177.473 117.297 177.472 117.297C177.472 117.297 177.471 117.297 177.471 117.297C177.471 117.297 177.47 117.297 177.47 117.297C177.469 117.297 177.469 117.297 177.468 117.297C177.468 117.297 177.468 117.297 177.467 117.297C177.467 117.297 177.466 117.297 177.466 117.297C177.465 117.297 177.465 117.297 177.464 117.297C177.464 117.297 177.464 117.297 177.463 117.297C177.463 117.297 177.462 117.297 177.462 117.297C177.461 117.297 177.461 117.297 177.46 117.297C177.46 117.297 177.46 117.297 177.459 117.297C177.459 117.297 177.458 117.297 177.458 117.297C177.457 117.297 177.457 117.297 177.456 117.297C177.456 117.297 177.456 117.297 177.455 117.297C177.455 117.297 177.454 117.297 177.454 117.297C177.453 117.297 177.453 117.297 177.452 117.297C177.452 117.297 177.452 117.297 177.451 117.297C177.451 117.297 177.45 117.297 177.45 117.297C177.449 117.297 177.449 117.297 177.448 117.297C177.448 117.297 177.448 117.297 177.447 117.297C177.447 117.297 177.446 117.297 177.446 117.297C177.445 117.297 177.445 117.297 177.445 117.297C177.444 117.297 177.444 117.297 177.443 117.297C177.443 117.297 177.442 117.297 177.442 117.297C177.441 117.297 177.441 117.297 177.441 117.297C177.44 117.297 177.44 117.297 177.439 117.297C177.439 117.297 177.438 117.297 177.438 117.297C177.437 117.297 177.437 117.297 177.437 117.297C177.436 117.297 177.436 117.297 177.435 117.297C177.435 117.297 177.434 117.297 177.434 117.297C177.433 117.297 177.433 117.297 177.433 117.297C177.432 117.297 177.432 117.297 177.431 117.297C177.431 117.297 177.43 117.297 177.43 117.297C177.429 117.297 177.429 117.297 177.429 117.297C177.428 117.297 177.428 117.297 177.427 117.297C177.427 117.297 177.426 117.297 177.426 117.297C177.425 117.297 177.425 117.297 177.425 117.297C177.424 117.297 177.424 117.297 177.423 117.297C177.423 117.297 177.422 117.297 177.422 117.297C177.421 117.297 177.421 117.297 177.421 117.297C177.42 117.297 177.42 117.297 177.419 117.297C177.419 117.297 177.418 117.297 177.418 117.297C177.417 117.297 177.417 117.297 177.417 117.297C177.416 117.297 177.416 117.297 177.415 117.297C177.415 117.297 177.414 117.297 177.414 117.297C177.413 117.297 177.413 117.297 177.413 117.297C177.412 117.297 177.412 117.297 177.411 117.297C177.411 117.297 177.41 117.297 177.41 117.297C177.409 117.297 177.409 117.297 177.409 117.297C177.408 117.297 177.408 117.297 177.407 117.297C177.407 117.297 177.406 117.297 177.406 117.297C177.405 117.297 177.405 117.297 177.405 117.297C177.404 117.297 177.404 117.297 177.403 117.297C177.403 117.297 177.402 117.297 177.402 117.297C177.401 117.297 177.401 117.297 177.401 117.297C177.4 117.297 177.4 117.297 177.399 117.297C177.399 117.297 177.398 117.297 177.398 117.297C177.397 117.297 177.397 117.297 177.396 117.297C177.396 117.297 177.396 117.297 177.395 117.297C177.395 117.297 177.394 117.297 177.394 117.297C177.393 117.297 177.393 117.297 177.392 117.297C177.392 117.297 177.392 117.297 177.391 117.297C177.391 117.297 177.39 117.297 177.39 117.297C177.389 117.297 177.389 117.297 177.388 117.297C177.388 117.297 177.388 117.297 177.387 117.297C177.387 117.297 177.386 117.297 177.386 117.297C177.385 117.297 177.385 117.297 177.384 117.297C177.384 117.297 177.384 117.297 177.383 117.297C177.383 117.297 177.382 117.297 177.382 117.297C177.381 117.297 177.381 117.297 177.38 117.297C177.38 117.297 177.38 117.297 177.379 117.297C177.379 117.297 177.378 117.297 177.378 117.297C177.377 117.297 177.377 117.297 177.376 117.297C177.376 117.297 177.376 117.297 177.375 117.297C177.375 117.297 177.374 117.297 177.374 117.297C177.373 117.297 177.373 117.297 177.372 117.297C177.372 117.297 177.371 117.297 177.371 117.297C177.371 117.297 177.37 117.297 177.37 117.297C177.369 117.297 177.369 117.297 177.368 117.297C177.368 117.297 177.367 117.297 177.367 117.297C177.367 117.297 177.366 117.297 177.366 117.297C177.365 117.297 177.365 117.297 177.364 117.297C177.364 117.297 177.363 117.297 177.363 117.297C177.363 117.297 177.362 117.297 177.362 117.297C177.361 117.297 177.361 117.297 177.36 117.297C177.36 117.297 177.359 117.297 177.359 117.297C177.358 117.297 177.358 117.297 177.358 117.297C177.357 117.297 177.357 117.297 177.356 117.297C177.356 117.297 177.355 117.297 177.355 117.297C177.354 117.297 177.354 117.297 177.354 117.297C177.353 117.297 177.353 117.297 177.352 117.297C177.352 117.297 177.351 117.297 177.351 117.297C177.35 117.297 177.35 117.297 177.35 117.297C177.349 117.297 177.349 117.297 177.348 117.297C177.348 117.297 177.347 117.297 177.347 117.297C177.346 117.297 177.346 117.297 177.345 117.297C177.345 117.297 177.345 117.297 177.344 117.297C177.344 117.297 177.343 117.297 177.343 117.297C177.342 117.297 177.342 117.297 177.341 117.297C177.341 117.297 177.341 117.297 177.34 117.297C177.34 117.297 177.339 117.297 177.339 117.297C177.338 117.297 177.338 117.297 177.337 117.297C177.337 117.297 177.336 117.297 177.336 117.297C177.336 117.297 177.335 117.297 177.335 117.297C177.334 117.297 177.334 117.297 177.333 117.297C177.333 117.297 177.332 117.297 177.332 117.297C177.332 117.297 177.331 117.297 177.331 117.297C177.33 117.297 177.33 117.297 177.329 117.297C177.329 117.297 177.328 117.297 177.328 117.297C177.327 117.297 177.327 117.297 177.327 117.297C177.326 117.297 177.326 117.297 177.325 117.297C177.325 117.297 177.324 117.297 177.324 117.297C177.323 117.297 177.323 117.297 177.323 117.297C177.322 117.297 177.322 117.297 177.321 117.297C177.321 117.297 177.32 117.297 177.32 117.297C177.319 117.297 177.319 117.297 177.318 117.297C177.318 117.297 177.318 117.297 177.317 117.297C177.317 117.297 177.316 117.297 177.316 117.297C177.315 117.297 177.315 117.297 177.314 117.297C177.314 117.297 177.314 117.297 177.313 117.297C177.313 117.297 177.312 117.297 177.312 117.297C177.311 117.297 177.311 117.297 177.31 117.297C177.31 117.297 177.309 117.297 177.309 117.297C177.309 117.297 177.308 117.297 177.308 117.297C177.307 117.297 177.307 117.297 177.306 117.297C177.306 117.297 177.305 117.297 177.305 117.297C177.305 117.297 177.304 117.297 177.304 117.297C177.303 117.297 177.303 117.297 177.302 117.297C177.302 117.297 177.301 117.297 177.301 117.297C177.3 117.297 177.3 117.297 177.3 117.297C177.299 117.297 177.299 117.297 177.298 117.297C177.298 117.297 177.297 117.297 177.297 117.297C177.296 117.297 177.296 117.297 177.295 117.297C177.295 117.297 177.295 117.297 177.294 117.297C177.294 117.297 177.293 117.297 177.293 117.297C177.292 117.297 177.292 117.297 177.291 117.297C177.291 117.297 177.291 117.297 177.29 117.297C177.29 117.297 177.289 117.297 177.289 117.297C177.288 117.297 177.288 117.297 177.287 117.297C177.287 117.297 177.286 117.297 177.286 117.297C177.286 117.297 177.285 117.297 177.285 117.297C177.284 117.297 177.284 117.297 177.283 117.297C177.283 117.297 177.282 117.297 177.282 117.297C177.281 117.297 177.281 117.297 177.281 117.297C177.28 117.297 177.28 117.297 177.279 117.297C177.279 117.297 177.278 117.297 177.278 117.297C177.277 117.297 177.277 117.297 177.276 117.297C177.276 117.297 177.276 117.297 177.275 117.297C177.275 117.297 177.274 117.297 177.274 117.297C177.273 117.297 177.273 117.297 177.272 117.297C177.272 117.297 177.271 117.297 177.271 117.297C177.271 117.297 177.27 117.297 177.27 117.297C177.269 117.297 177.269 117.297 177.268 117.297C177.268 117.297 177.267 117.297 177.267 117.297C177.266 117.297 177.266 117.297 177.266 117.297C177.265 117.297 177.265 117.297 177.264 117.297C177.264 117.297 177.263 117.297 177.263 117.297C177.262 117.297 177.262 117.297 177.262 117.297C177.261 117.297 177.261 117.297 177.26 117.297C177.26 117.297 177.259 117.297 177.259 117.297C177.258 117.297 177.258 117.297 177.257 117.297C177.257 117.297 177.257 117.297 177.256 117.297C177.256 117.297 177.255 117.297 177.255 117.297C177.254 117.297 177.254 117.297 177.253 117.297C177.253 117.297 177.252 117.297 177.252 117.297C177.252 117.297 177.251 117.297 177.251 117.297C177.25 117.297 177.25 117.297 177.249 117.297C177.249 117.297 177.248 117.297 177.248 117.297C177.247 117.297 177.247 117.297 177.247 117.297C177.246 117.297 177.246 117.297 177.245 117.297C177.245 117.297 177.244 117.297 177.244 117.297C177.243 117.297 177.243 117.297 177.242 117.297C177.242 117.297 177.242 117.297 177.241 117.297C177.241 117.297 177.24 117.297 177.24 117.297C177.239 117.297 177.239 117.297 177.238 117.297C177.238 117.297 177.237 117.297 177.237 117.297C177.236 117.297 177.236 117.297 177.236 117.297C177.235 117.297 177.235 117.297 177.234 117.297C177.234 117.297 177.233 117.297 177.233 117.297C177.232 117.297 177.232 117.297 177.231 117.297C177.231 117.297 177.231 117.297 177.23 117.297C177.23 117.297 177.229 117.297 177.229 117.297C177.228 117.297 177.228 117.297 177.227 117.297C177.227 117.297 177.226 117.297 177.226 117.297C177.226 117.297 177.225 117.297 177.225 117.297C177.224 117.297 177.224 117.297 177.223 117.297C177.223 117.297 177.222 117.297 177.222 117.297C177.221 117.297 177.221 117.297 177.221 117.297C177.22 117.297 177.22 117.297 177.219 117.297C177.219 117.297 177.218 117.297 177.218 117.297C177.217 117.297 177.217 117.297 177.216 117.297C177.216 117.297 177.216 117.297 177.215 117.297C177.215 117.297 177.214 117.297 177.214 117.297C177.213 117.297 177.213 117.297 177.212 117.297C177.212 117.297 177.211 117.297 177.211 117.297C177.21 117.297 177.21 117.297 177.21 117.297C177.209 117.297 177.209 117.297 177.208 117.297C177.208 117.297 177.207 117.297 177.207 117.297C177.206 117.297 177.206 117.297 177.205 117.297C177.205 117.297 177.205 117.297 177.204 117.297C177.204 117.297 177.203 117.297 177.203 117.297C177.202 117.297 177.202 117.297 177.201 117.297C177.201 117.297 177.2 117.297 177.2 117.297C177.2 117.297 177.199 117.297 177.199 117.297C177.198 117.297 177.198 117.297 177.197 117.297C177.197 117.297 177.196 117.297 177.196 117.297C177.195 117.297 177.195 117.297 177.194 117.297C177.194 117.297 177.194 117.297 177.193 117.297C177.193 117.297 177.192 117.297 177.192 117.297C177.191 117.297 177.191 117.297 177.19 117.297C177.19 117.297 177.189 117.297 177.189 117.297C177.189 117.297 177.188 117.297 177.188 117.297C177.187 117.297 177.187 117.297 177.186 117.297C177.186 117.297 177.185 117.297 177.185 117.297C177.184 117.297 177.184 117.297 177.183 117.297C177.183 117.297 177.183 117.297 177.182 117.297C177.182 117.297 177.181 117.297 177.181 117.297C177.18 117.297 177.18 117.297 177.179 117.297C177.179 117.297 177.178 117.297 177.178 117.297C177.178 117.297 177.177 117.297 177.177 117.297C177.176 117.297 177.176 117.297 177.175 117.297C177.175 117.297 177.174 117.297 177.174 117.297C177.173 117.297 177.173 117.297 177.172 117.297C177.172 117.297 177.172 117.297 177.171 117.297C177.171 117.297 177.17 117.297 177.17 117.297C177.169 117.297 177.169 117.297 177.168 117.297C177.168 117.297 177.167 117.297 177.167 117.297C177.167 117.297 177.166 117.297 177.166 117.297C177.165 117.297 177.165 117.297 177.164 117.297C177.164 117.297 177.163 117.297 177.163 117.297C177.162 117.297 177.162 117.297 177.161 117.297C177.161 117.297 177.161 117.297 177.16 117.297C177.16 117.297 177.159 117.297 177.159 117.297C177.158 117.297 177.158 117.297 177.157 117.297C177.157 117.297 177.156 117.297 177.156 117.297C177.155 117.297 177.155 117.297 177.155 117.297C177.154 117.297 177.154 117.297 177.153 117.297C177.153 117.297 177.152 117.297 177.152 117.297C177.151 117.297 177.151 117.297 177.15 117.297C177.15 117.297 177.149 117.297 177.149 117.297C177.149 117.297 177.148 117.297 177.148 117.297C177.147 117.297 177.147 117.297 177.146 117.297C177.146 117.297 177.145 117.297 177.145 117.297C177.144 117.297 177.144 117.297 177.144 117.297C177.143 117.297 177.143 117.297 177.142 117.297C177.142 117.297 177.141 117.297 177.141 117.297C177.14 117.297 177.14 117.297 177.139 117.297C177.139 117.297 177.138 117.297 177.138 117.297C177.138 117.297 177.137 117.297 177.137 117.297C177.136 117.297 177.136 117.297 177.135 117.297C177.135 117.297 177.134 117.297 177.134 117.297C177.133 117.297 177.133 117.297 177.132 117.297C177.132 117.297 177.132 117.297 177.131 117.297C177.131 117.297 177.13 117.297 177.13 117.297C177.129 117.297 177.129 117.297 177.128 117.297C177.128 117.297 177.127 117.297 177.127 117.297C177.126 117.297 177.126 117.297 177.126 117.297C177.125 117.297 177.125 117.297 177.124 117.297C177.124 117.297 177.123 117.297 177.123 117.297C177.122 117.297 177.122 117.297 177.121 117.297C177.121 117.297 177.12 117.297 177.12 117.297C177.12 117.297 177.119 117.297 177.119 117.297C177.118 117.297 177.118 117.297 177.117 117.297C177.117 117.297 177.116 117.297 177.116 117.297C177.115 117.297 177.115 117.297 177.114 117.297C177.114 117.297 177.113 117.297 177.113 117.297C177.113 117.297 177.112 117.297 177.112 117.297C177.111 117.297 177.111 117.297 177.11 117.297C177.11 117.297 177.109 117.297 177.109 117.297C177.108 117.297 177.108 117.297 177.107 117.297C177.107 117.297 177.107 117.297 177.106 117.297C177.106 117.297 177.105 117.297 177.105 117.297C177.104 117.297 177.104 117.297 177.103 117.297C177.103 117.297 177.102 117.297 177.102 117.297C177.101 117.297 177.101 117.297 177.101 117.297C177.1 117.297 177.1 117.297 177.099 117.297C177.099 117.297 177.098 117.297 177.098 117.297C177.097 117.297 177.097 117.297 177.096 117.297C177.096 117.297 177.095 117.297 177.095 117.297C177.095 117.297 177.094 117.297 177.094 117.297C177.093 117.297 177.093 117.297 177.092 117.297C177.092 117.297 177.091 117.297 177.091 117.297C177.09 117.297 177.09 117.297 177.089 117.297C177.089 117.297 177.088 117.297 177.088 117.297C177.088 117.297 177.087 117.297 177.087 117.297C177.086 117.297 177.086 117.297 177.085 117.297C177.085 117.297 177.084 117.297 177.084 117.297C177.083 117.297 177.083 117.297 177.082 117.297C177.082 117.297 177.082 117.297 177.081 117.297C177.081 117.297 177.08 117.297 177.08 117.297C177.079 117.297 177.079 117.297 177.078 117.297C177.078 117.297 177.077 117.297 177.077 117.297C177.076 117.297 177.076 117.297 177.075 117.297C177.075 117.297 177.075 117.297 177.074 117.297C177.074 117.297 177.073 117.297 177.073 117.297C177.072 117.297 177.072 117.297 177.071 117.297C177.071 117.297 177.07 117.297 177.07 117.297C177.069 117.297 177.069 117.297 177.069 117.297C177.068 117.297 177.068 117.297 177.067 117.297C177.067 117.297 177.066 117.297 177.066 117.297C177.065 117.297 177.065 117.297 177.064 117.297C177.064 117.297 177.063 117.297 177.063 117.297C177.062 117.297 177.062 117.297 177.062 117.297C177.061 117.297 177.061 117.297 177.06 117.297C177.06 117.297 177.059 117.297 177.059 117.297C177.058 117.297 177.058 117.297 177.057 117.297C177.057 117.297 177.056 117.297 177.056 117.297C177.055 117.297 177.055 117.297 177.055 117.297C177.054 117.297 177.054 117.297 177.053 117.297C177.053 117.297 177.052 117.297 177.052 117.297C177.051 117.297 177.051 117.297 177.05 117.297C177.05 117.297 177.049 117.297 177.049 117.297C177.048 117.297 177.048 117.297 177.048 117.297C177.047 117.297 177.047 117.297 177.046 117.297C177.046 117.297 177.045 117.297 177.045 117.297C177.044 117.297 177.044 117.297 177.043 117.297C177.043 117.297 177.042 117.297 177.042 117.297C177.041 117.297 177.041 117.297 177.041 117.297C177.04 117.297 177.04 117.297 177.039 117.297C177.039 117.297 177.038 117.297 177.038 117.297C177.037 117.297 177.037 117.297 177.036 117.297C177.036 117.297 177.035 117.297 177.035 117.297C177.034 117.297 177.034 117.297 177.034 117.297C177.033 117.297 177.033 117.297 177.032 117.297C177.032 117.297 177.031 117.297 177.031 117.297C177.03 117.297 177.03 117.297 177.029 117.297C177.029 117.297 177.028 117.297 177.028 117.297C177.027 117.297 177.027 117.297 177.027 117.297C177.026 117.297 177.026 117.297 177.025 117.297C177.025 117.297 177.024 117.297 177.024 117.297C177.023 117.297 177.023 117.297 177.022 117.297C177.022 117.297 177.021 117.297 177.021 117.297C177.02 117.297 177.02 117.297 177.02 117.297C177.019 117.297 177.019 117.297 177.018 117.297V118.297V119.297C177.019 119.297 177.019 119.297 177.02 119.297C177.02 119.297 177.02 119.297 177.021 119.297C177.021 119.297 177.022 119.297 177.022 119.297C177.023 119.297 177.023 119.297 177.024 119.297C177.024 119.297 177.025 119.297 177.025 119.297C177.026 119.297 177.026 119.297 177.027 119.297C177.027 119.297 177.027 119.297 177.028 119.297C177.028 119.297 177.029 119.297 177.029 119.297C177.03 119.297 177.03 119.297 177.031 119.297C177.031 119.297 177.032 119.297 177.032 119.297C177.033 119.297 177.033 119.297 177.034 119.297C177.034 119.297 177.034 119.297 177.035 119.297C177.035 119.297 177.036 119.297 177.036 119.297C177.037 119.297 177.037 119.297 177.038 119.297C177.038 119.297 177.039 119.297 177.039 119.297C177.04 119.297 177.04 119.297 177.041 119.297C177.041 119.297 177.041 119.297 177.042 119.297C177.042 119.297 177.043 119.297 177.043 119.297C177.044 119.297 177.044 119.297 177.045 119.297C177.045 119.297 177.046 119.297 177.046 119.297C177.047 119.297 177.047 119.297 177.048 119.297C177.048 119.297 177.048 119.297 177.049 119.297C177.049 119.297 177.05 119.297 177.05 119.297C177.051 119.297 177.051 119.297 177.052 119.297C177.052 119.297 177.053 119.297 177.053 119.297C177.054 119.297 177.054 119.297 177.055 119.297C177.055 119.297 177.055 119.297 177.056 119.297C177.056 119.297 177.057 119.297 177.057 119.297C177.058 119.297 177.058 119.297 177.059 119.297C177.059 119.297 177.06 119.297 177.06 119.297C177.061 119.297 177.061 119.297 177.062 119.297C177.062 119.297 177.062 119.297 177.063 119.297C177.063 119.297 177.064 119.297 177.064 119.297C177.065 119.297 177.065 119.297 177.066 119.297C177.066 119.297 177.067 119.297 177.067 119.297C177.068 119.297 177.068 119.297 177.069 119.297C177.069 119.297 177.069 119.297 177.07 119.297C177.07 119.297 177.071 119.297 177.071 119.297C177.072 119.297 177.072 119.297 177.073 119.297C177.073 119.297 177.074 119.297 177.074 119.297C177.075 119.297 177.075 119.297 177.075 119.297C177.076 119.297 177.076 119.297 177.077 119.297C177.077 119.297 177.078 119.297 177.078 119.297C177.079 119.297 177.079 119.297 177.08 119.297C177.08 119.297 177.081 119.297 177.081 119.297C177.082 119.297 177.082 119.297 177.082 119.297C177.083 119.297 177.083 119.297 177.084 119.297C177.084 119.297 177.085 119.297 177.085 119.297C177.086 119.297 177.086 119.297 177.087 119.297C177.087 119.297 177.088 119.297 177.088 119.297C177.088 119.297 177.089 119.297 177.089 119.297C177.09 119.297 177.09 119.297 177.091 119.297C177.091 119.297 177.092 119.297 177.092 119.297C177.093 119.297 177.093 119.297 177.094 119.297C177.094 119.297 177.095 119.297 177.095 119.297C177.095 119.297 177.096 119.297 177.096 119.297C177.097 119.297 177.097 119.297 177.098 119.297C177.098 119.297 177.099 119.297 177.099 119.297C177.1 119.297 177.1 119.297 177.101 119.297C177.101 119.297 177.101 119.297 177.102 119.297C177.102 119.297 177.103 119.297 177.103 119.297C177.104 119.297 177.104 119.297 177.105 119.297C177.105 119.297 177.106 119.297 177.106 119.297C177.107 119.297 177.107 119.297 177.107 119.297C177.108 119.297 177.108 119.297 177.109 119.297C177.109 119.297 177.11 119.297 177.11 119.297C177.111 119.297 177.111 119.297 177.112 119.297C177.112 119.297 177.113 119.297 177.113 119.297C177.113 119.297 177.114 119.297 177.114 119.297C177.115 119.297 177.115 119.297 177.116 119.297C177.116 119.297 177.117 119.297 177.117 119.297C177.118 119.297 177.118 119.297 177.119 119.297C177.119 119.297 177.12 119.297 177.12 119.297C177.12 119.297 177.121 119.297 177.121 119.297C177.122 119.297 177.122 119.297 177.123 119.297C177.123 119.297 177.124 119.297 177.124 119.297C177.125 119.297 177.125 119.297 177.126 119.297C177.126 119.297 177.126 119.297 177.127 119.297C177.127 119.297 177.128 119.297 177.128 119.297C177.129 119.297 177.129 119.297 177.13 119.297C177.13 119.297 177.131 119.297 177.131 119.297C177.132 119.297 177.132 119.297 177.132 119.297C177.133 119.297 177.133 119.297 177.134 119.297C177.134 119.297 177.135 119.297 177.135 119.297C177.136 119.297 177.136 119.297 177.137 119.297C177.137 119.297 177.138 119.297 177.138 119.297C177.138 119.297 177.139 119.297 177.139 119.297C177.14 119.297 177.14 119.297 177.141 119.297C177.141 119.297 177.142 119.297 177.142 119.297C177.143 119.297 177.143 119.297 177.144 119.297C177.144 119.297 177.144 119.297 177.145 119.297C177.145 119.297 177.146 119.297 177.146 119.297C177.147 119.297 177.147 119.297 177.148 119.297C177.148 119.297 177.149 119.297 177.149 119.297C177.149 119.297 177.15 119.297 177.15 119.297C177.151 119.297 177.151 119.297 177.152 119.297C177.152 119.297 177.153 119.297 177.153 119.297C177.154 119.297 177.154 119.297 177.155 119.297C177.155 119.297 177.155 119.297 177.156 119.297C177.156 119.297 177.157 119.297 177.157 119.297C177.158 119.297 177.158 119.297 177.159 119.297C177.159 119.297 177.16 119.297 177.16 119.297C177.161 119.297 177.161 119.297 177.161 119.297C177.162 119.297 177.162 119.297 177.163 119.297C177.163 119.297 177.164 119.297 177.164 119.297C177.165 119.297 177.165 119.297 177.166 119.297C177.166 119.297 177.167 119.297 177.167 119.297C177.167 119.297 177.168 119.297 177.168 119.297C177.169 119.297 177.169 119.297 177.17 119.297C177.17 119.297 177.171 119.297 177.171 119.297C177.172 119.297 177.172 119.297 177.172 119.297C177.173 119.297 177.173 119.297 177.174 119.297C177.174 119.297 177.175 119.297 177.175 119.297C177.176 119.297 177.176 119.297 177.177 119.297C177.177 119.297 177.178 119.297 177.178 119.297C177.178 119.297 177.179 119.297 177.179 119.297C177.18 119.297 177.18 119.297 177.181 119.297C177.181 119.297 177.182 119.297 177.182 119.297C177.183 119.297 177.183 119.297 177.183 119.297C177.184 119.297 177.184 119.297 177.185 119.297C177.185 119.297 177.186 119.297 177.186 119.297C177.187 119.297 177.187 119.297 177.188 119.297C177.188 119.297 177.189 119.297 177.189 119.297C177.189 119.297 177.19 119.297 177.19 119.297C177.191 119.297 177.191 119.297 177.192 119.297C177.192 119.297 177.193 119.297 177.193 119.297C177.194 119.297 177.194 119.297 177.194 119.297C177.195 119.297 177.195 119.297 177.196 119.297C177.196 119.297 177.197 119.297 177.197 119.297C177.198 119.297 177.198 119.297 177.199 119.297C177.199 119.297 177.2 119.297 177.2 119.297C177.2 119.297 177.201 119.297 177.201 119.297C177.202 119.297 177.202 119.297 177.203 119.297C177.203 119.297 177.204 119.297 177.204 119.297C177.205 119.297 177.205 119.297 177.205 119.297C177.206 119.297 177.206 119.297 177.207 119.297C177.207 119.297 177.208 119.297 177.208 119.297C177.209 119.297 177.209 119.297 177.21 119.297C177.21 119.297 177.21 119.297 177.211 119.297C177.211 119.297 177.212 119.297 177.212 119.297C177.213 119.297 177.213 119.297 177.214 119.297C177.214 119.297 177.215 119.297 177.215 119.297C177.216 119.297 177.216 119.297 177.216 119.297C177.217 119.297 177.217 119.297 177.218 119.297C177.218 119.297 177.219 119.297 177.219 119.297C177.22 119.297 177.22 119.297 177.221 119.297C177.221 119.297 177.221 119.297 177.222 119.297C177.222 119.297 177.223 119.297 177.223 119.297C177.224 119.297 177.224 119.297 177.225 119.297C177.225 119.297 177.226 119.297 177.226 119.297C177.226 119.297 177.227 119.297 177.227 119.297C177.228 119.297 177.228 119.297 177.229 119.297C177.229 119.297 177.23 119.297 177.23 119.297C177.231 119.297 177.231 119.297 177.231 119.297C177.232 119.297 177.232 119.297 177.233 119.297C177.233 119.297 177.234 119.297 177.234 119.297C177.235 119.297 177.235 119.297 177.236 119.297C177.236 119.297 177.236 119.297 177.237 119.297C177.237 119.297 177.238 119.297 177.238 119.297C177.239 119.297 177.239 119.297 177.24 119.297C177.24 119.297 177.241 119.297 177.241 119.297C177.242 119.297 177.242 119.297 177.242 119.297C177.243 119.297 177.243 119.297 177.244 119.297C177.244 119.297 177.245 119.297 177.245 119.297C177.246 119.297 177.246 119.297 177.247 119.297C177.247 119.297 177.247 119.297 177.248 119.297C177.248 119.297 177.249 119.297 177.249 119.297C177.25 119.297 177.25 119.297 177.251 119.297C177.251 119.297 177.252 119.297 177.252 119.297C177.252 119.297 177.253 119.297 177.253 119.297C177.254 119.297 177.254 119.297 177.255 119.297C177.255 119.297 177.256 119.297 177.256 119.297C177.257 119.297 177.257 119.297 177.257 119.297C177.258 119.297 177.258 119.297 177.259 119.297C177.259 119.297 177.26 119.297 177.26 119.297C177.261 119.297 177.261 119.297 177.262 119.297C177.262 119.297 177.262 119.297 177.263 119.297C177.263 119.297 177.264 119.297 177.264 119.297C177.265 119.297 177.265 119.297 177.266 119.297C177.266 119.297 177.266 119.297 177.267 119.297C177.267 119.297 177.268 119.297 177.268 119.297C177.269 119.297 177.269 119.297 177.27 119.297C177.27 119.297 177.271 119.297 177.271 119.297C177.271 119.297 177.272 119.297 177.272 119.297C177.273 119.297 177.273 119.297 177.274 119.297C177.274 119.297 177.275 119.297 177.275 119.297C177.276 119.297 177.276 119.297 177.276 119.297C177.277 119.297 177.277 119.297 177.278 119.297C177.278 119.297 177.279 119.297 177.279 119.297C177.28 119.297 177.28 119.297 177.281 119.297C177.281 119.297 177.281 119.297 177.282 119.297C177.282 119.297 177.283 119.297 177.283 119.297C177.284 119.297 177.284 119.297 177.285 119.297C177.285 119.297 177.286 119.297 177.286 119.297C177.286 119.297 177.287 119.297 177.287 119.297C177.288 119.297 177.288 119.297 177.289 119.297C177.289 119.297 177.29 119.297 177.29 119.297C177.291 119.297 177.291 119.297 177.291 119.297C177.292 119.297 177.292 119.297 177.293 119.297C177.293 119.297 177.294 119.297 177.294 119.297C177.295 119.297 177.295 119.297 177.295 119.297C177.296 119.297 177.296 119.297 177.297 119.297C177.297 119.297 177.298 119.297 177.298 119.297C177.299 119.297 177.299 119.297 177.3 119.297C177.3 119.297 177.3 119.297 177.301 119.297C177.301 119.297 177.302 119.297 177.302 119.297C177.303 119.297 177.303 119.297 177.304 119.297C177.304 119.297 177.305 119.297 177.305 119.297C177.305 119.297 177.306 119.297 177.306 119.297C177.307 119.297 177.307 119.297 177.308 119.297C177.308 119.297 177.309 119.297 177.309 119.297C177.309 119.297 177.31 119.297 177.31 119.297C177.311 119.297 177.311 119.297 177.312 119.297C177.312 119.297 177.313 119.297 177.313 119.297C177.314 119.297 177.314 119.297 177.314 119.297C177.315 119.297 177.315 119.297 177.316 119.297C177.316 119.297 177.317 119.297 177.317 119.297C177.318 119.297 177.318 119.297 177.318 119.297C177.319 119.297 177.319 119.297 177.32 119.297C177.32 119.297 177.321 119.297 177.321 119.297C177.322 119.297 177.322 119.297 177.323 119.297C177.323 119.297 177.323 119.297 177.324 119.297C177.324 119.297 177.325 119.297 177.325 119.297C177.326 119.297 177.326 119.297 177.327 119.297C177.327 119.297 177.327 119.297 177.328 119.297C177.328 119.297 177.329 119.297 177.329 119.297C177.33 119.297 177.33 119.297 177.331 119.297C177.331 119.297 177.332 119.297 177.332 119.297C177.332 119.297 177.333 119.297 177.333 119.297C177.334 119.297 177.334 119.297 177.335 119.297C177.335 119.297 177.336 119.297 177.336 119.297C177.336 119.297 177.337 119.297 177.337 119.297C177.338 119.297 177.338 119.297 177.339 119.297C177.339 119.297 177.34 119.297 177.34 119.297C177.341 119.297 177.341 119.297 177.341 119.297C177.342 119.297 177.342 119.297 177.343 119.297C177.343 119.297 177.344 119.297 177.344 119.297C177.345 119.297 177.345 119.297 177.345 119.297C177.346 119.297 177.346 119.297 177.347 119.297C177.347 119.297 177.348 119.297 177.348 119.297C177.349 119.297 177.349 119.297 177.35 119.297C177.35 119.297 177.35 119.297 177.351 119.297C177.351 119.297 177.352 119.297 177.352 119.297C177.353 119.297 177.353 119.297 177.354 119.297C177.354 119.297 177.354 119.297 177.355 119.297C177.355 119.297 177.356 119.297 177.356 119.297C177.357 119.297 177.357 119.297 177.358 119.297C177.358 119.297 177.358 119.297 177.359 119.297C177.359 119.297 177.36 119.297 177.36 119.297C177.361 119.297 177.361 119.297 177.362 119.297C177.362 119.297 177.363 119.297 177.363 119.297C177.363 119.297 177.364 119.297 177.364 119.297C177.365 119.297 177.365 119.297 177.366 119.297C177.366 119.297 177.367 119.297 177.367 119.297C177.367 119.297 177.368 119.297 177.368 119.297C177.369 119.297 177.369 119.297 177.37 119.297C177.37 119.297 177.371 119.297 177.371 119.297C177.371 119.297 177.372 119.297 177.372 119.297C177.373 119.297 177.373 119.297 177.374 119.297C177.374 119.297 177.375 119.297 177.375 119.297C177.376 119.297 177.376 119.297 177.376 119.297C177.377 119.297 177.377 119.297 177.378 119.297C177.378 119.297 177.379 119.297 177.379 119.297C177.38 119.297 177.38 119.297 177.38 119.297C177.381 119.297 177.381 119.297 177.382 119.297C177.382 119.297 177.383 119.297 177.383 119.297C177.384 119.297 177.384 119.297 177.384 119.297C177.385 119.297 177.385 119.297 177.386 119.297C177.386 119.297 177.387 119.297 177.387 119.297C177.388 119.297 177.388 119.297 177.388 119.297C177.389 119.297 177.389 119.297 177.39 119.297C177.39 119.297 177.391 119.297 177.391 119.297C177.392 119.297 177.392 119.297 177.392 119.297C177.393 119.297 177.393 119.297 177.394 119.297C177.394 119.297 177.395 119.297 177.395 119.297C177.396 119.297 177.396 119.297 177.396 119.297C177.397 119.297 177.397 119.297 177.398 119.297C177.398 119.297 177.399 119.297 177.399 119.297C177.4 119.297 177.4 119.297 177.401 119.297C177.401 119.297 177.401 119.297 177.402 119.297C177.402 119.297 177.403 119.297 177.403 119.297C177.404 119.297 177.404 119.297 177.405 119.297C177.405 119.297 177.405 119.297 177.406 119.297C177.406 119.297 177.407 119.297 177.407 119.297C177.408 119.297 177.408 119.297 177.409 119.297C177.409 119.297 177.409 119.297 177.41 119.297C177.41 119.297 177.411 119.297 177.411 119.297C177.412 119.297 177.412 119.297 177.413 119.297C177.413 119.297 177.413 119.297 177.414 119.297C177.414 119.297 177.415 119.297 177.415 119.297C177.416 119.297 177.416 119.297 177.417 119.297C177.417 119.297 177.417 119.297 177.418 119.297C177.418 119.297 177.419 119.297 177.419 119.297C177.42 119.297 177.42 119.297 177.421 119.297C177.421 119.297 177.421 119.297 177.422 119.297C177.422 119.297 177.423 119.297 177.423 119.297C177.424 119.297 177.424 119.297 177.425 119.297C177.425 119.297 177.425 119.297 177.426 119.297C177.426 119.297 177.427 119.297 177.427 119.297C177.428 119.297 177.428 119.297 177.429 119.297C177.429 119.297 177.429 119.297 177.43 119.297C177.43 119.297 177.431 119.297 177.431 119.297C177.432 119.297 177.432 119.297 177.433 119.297C177.433 119.297 177.433 119.297 177.434 119.297C177.434 119.297 177.435 119.297 177.435 119.297C177.436 119.297 177.436 119.297 177.437 119.297C177.437 119.297 177.437 119.297 177.438 119.297C177.438 119.297 177.439 119.297 177.439 119.297C177.44 119.297 177.44 119.297 177.441 119.297C177.441 119.297 177.441 119.297 177.442 119.297C177.442 119.297 177.443 119.297 177.443 119.297C177.444 119.297 177.444 119.297 177.445 119.297C177.445 119.297 177.445 119.297 177.446 119.297C177.446 119.297 177.447 119.297 177.447 119.297C177.448 119.297 177.448 119.297 177.448 119.297C177.449 119.297 177.449 119.297 177.45 119.297C177.45 119.297 177.451 119.297 177.451 119.297C177.452 119.297 177.452 119.297 177.452 119.297C177.453 119.297 177.453 119.297 177.454 119.297C177.454 119.297 177.455 119.297 177.455 119.297C177.456 119.297 177.456 119.297 177.456 119.297C177.457 119.297 177.457 119.297 177.458 119.297C177.458 119.297 177.459 119.297 177.459 119.297C177.46 119.297 177.46 119.297 177.46 119.297C177.461 119.297 177.461 119.297 177.462 119.297C177.462 119.297 177.463 119.297 177.463 119.297C177.464 119.297 177.464 119.297 177.464 119.297C177.465 119.297 177.465 119.297 177.466 119.297C177.466 119.297 177.467 119.297 177.467 119.297C177.468 119.297 177.468 119.297 177.468 119.297C177.469 119.297 177.469 119.297 177.47 119.297C177.47 119.297 177.471 119.297 177.471 119.297C177.471 119.297 177.472 119.297 177.472 119.297C177.473 119.297 177.473 119.297 177.474 119.297C177.474 119.297 177.475 119.297 177.475 119.297C177.475 119.297 177.476 119.297 177.476 119.297C177.477 119.297 177.477 119.297 177.478 119.297C177.478 119.297 177.479 119.297 177.479 119.297C177.479 119.297 177.48 119.297 177.48 119.297C177.481 119.297 177.481 119.297 177.482 119.297C177.482 119.297 177.483 119.297 177.483 119.297C177.483 119.297 177.484 119.297 177.484 119.297C177.485 119.297 177.485 119.297 177.486 119.297C177.486 119.297 177.486 119.297 177.487 119.297C177.487 119.297 177.488 119.297 177.488 119.297C177.489 119.297 177.489 119.297 177.49 119.297C177.49 119.297 177.49 119.297 177.491 119.297C177.491 119.297 177.492 119.297 177.492 119.297C177.493 119.297 177.493 119.297 177.494 119.297C177.494 119.297 177.494 119.297 177.495 119.297C177.495 119.297 177.496 119.297 177.496 119.297C177.497 119.297 177.497 119.297 177.497 119.297C177.498 119.297 177.498 119.297 177.499 119.297C177.499 119.297 177.5 119.297 177.5 119.297C177.501 119.297 177.501 119.297 177.501 119.297C177.502 119.297 177.502 119.297 177.503 119.297C177.503 119.297 177.504 119.297 177.504 119.297C177.505 119.297 177.505 119.297 177.505 119.297C177.506 119.297 177.506 119.297 177.507 119.297C177.507 119.297 177.508 119.297 177.508 119.297C177.508 119.297 177.509 119.297 177.509 119.297C177.51 119.297 177.51 119.297 177.511 119.297C177.511 119.297 177.512 119.297 177.512 119.297C177.512 119.297 177.513 119.297 177.513 119.297C177.514 119.297 177.514 119.297 177.515 119.297C177.515 119.297 177.516 119.297 177.516 119.297C177.516 119.297 177.517 119.297 177.517 119.297C177.518 119.297 177.518 119.297 177.519 119.297C177.519 119.297 177.519 119.297 177.52 119.297C177.52 119.297 177.521 119.297 177.521 119.297C177.522 119.297 177.522 119.297 177.523 119.297C177.523 119.297 177.523 119.297 177.524 119.297C177.524 119.297 177.525 119.297 177.525 119.297C177.526 119.297 177.526 119.297 177.526 119.297C177.527 119.297 177.527 119.297 177.528 119.297C177.528 119.297 177.529 119.297 177.529 119.297C177.53 119.297 177.53 119.297 177.53 119.297C177.531 119.297 177.531 119.297 177.532 119.297C177.532 119.297 177.533 119.297 177.533 119.297C177.533 119.297 177.534 119.297 177.534 119.297C177.535 119.297 177.535 119.297 177.536 119.297C177.536 119.297 177.537 119.297 177.537 119.297C177.537 119.297 177.538 119.297 177.538 119.297C177.539 119.297 177.539 119.297 177.54 119.297C177.54 119.297 177.54 119.297 177.541 119.297C177.541 119.297 177.542 119.297 177.542 119.297C177.543 119.297 177.543 119.297 177.544 119.297C177.544 119.297 177.544 119.297 177.545 119.297C177.545 119.297 177.546 119.297 177.546 119.297C177.547 119.297 177.547 119.297 177.547 119.297C177.548 119.297 177.548 119.297 177.549 119.297C177.549 119.297 177.55 119.297 177.55 119.297C177.551 119.297 177.551 119.297 177.551 119.297C177.552 119.297 177.552 119.297 177.553 119.297C177.553 119.297 177.554 119.297 177.554 119.297C177.554 119.297 177.555 119.297 177.555 119.297C177.556 119.297 177.556 119.297 177.557 119.297C177.557 119.297 177.558 119.297 177.558 119.297C177.558 119.297 177.559 119.297 177.559 119.297C177.56 119.297 177.56 119.297 177.561 119.297C177.561 119.297 177.561 119.297 177.562 119.297C177.562 119.297 177.563 119.297 177.563 119.297C177.564 119.297 177.564 119.297 177.565 119.297C177.565 119.297 177.565 119.297 177.566 119.297C177.566 119.297 177.567 119.297 177.567 119.297C177.568 119.297 177.568 119.297 177.568 119.297C177.569 119.297 177.569 119.297 177.57 119.297C177.57 119.297 177.571 119.297 177.571 119.297C177.571 119.297 177.572 119.297 177.572 119.297C177.573 119.297 177.573 119.297 177.574 119.297C177.574 119.297 177.575 119.297 177.575 119.297C177.575 119.297 177.576 119.297 177.576 119.297C177.577 119.297 177.577 119.297 177.578 119.297C177.578 119.297 177.578 119.297 177.579 119.297C177.579 119.297 177.58 119.297 177.58 119.297C177.581 119.297 177.581 119.297 177.581 119.297C177.582 119.297 177.582 119.297 177.583 119.297C177.583 119.297 177.584 119.297 177.584 119.297C177.585 119.297 177.585 119.297 177.585 119.297C177.586 119.297 177.586 119.297 177.587 119.297C177.587 119.297 177.588 119.297 177.588 119.297C177.588 119.297 177.589 119.297 177.589 119.297C177.59 119.297 177.59 119.297 177.591 119.297C177.591 119.297 177.591 119.297 177.592 119.297C177.592 119.297 177.593 119.297 177.593 119.297C177.594 119.297 177.594 119.297 177.595 119.297C177.595 119.297 177.595 119.297 177.596 119.297C177.596 119.297 177.597 119.297 177.597 119.297C177.598 119.297 177.598 119.297 177.598 119.297C177.599 119.297 177.599 119.297 177.6 119.297C177.6 119.297 177.601 119.297 177.601 119.297C177.601 119.297 177.602 119.297 177.602 119.297C177.603 119.297 177.603 119.297 177.604 119.297C177.604 119.297 177.604 119.297 177.605 119.297C177.605 119.297 177.606 119.297 177.606 119.297C177.607 119.297 177.607 119.297 177.608 119.297C177.608 119.297 177.608 119.297 177.609 119.297C177.609 119.297 177.61 119.297 177.61 119.297C177.611 119.297 177.611 119.297 177.611 119.297C177.612 119.297 177.612 119.297 177.613 119.297C177.613 119.297 177.614 119.297 177.614 119.297C177.614 119.297 177.615 119.297 177.615 119.297C177.616 119.297 177.616 119.297 177.617 119.297C177.617 119.297 177.617 119.297 177.618 119.297C177.618 119.297 177.619 119.297 177.619 119.297C177.62 119.297 177.62 119.297 177.621 119.297C177.621 119.297 177.621 119.297 177.622 119.297C177.622 119.297 177.623 119.297 177.623 119.297C177.624 119.297 177.624 119.297 177.624 119.297C177.625 119.297 177.625 119.297 177.626 119.297C177.626 119.297 177.627 119.297 177.627 119.297C177.627 119.297 177.628 119.297 177.628 119.297C177.629 119.297 177.629 119.297 177.63 119.297C177.63 119.297 177.63 119.297 177.631 119.297C177.631 119.297 177.632 119.297 177.632 119.297C177.633 119.297 177.633 119.297 177.633 119.297C177.634 119.297 177.634 119.297 177.635 119.297C177.635 119.297 177.636 119.297 177.636 119.297C177.636 119.297 177.637 119.297 177.637 119.297C177.638 119.297 177.638 119.297 177.639 119.297C177.639 119.297 177.64 119.297 177.64 119.297C177.64 119.297 177.641 119.297 177.641 119.297C177.642 119.297 177.642 119.297 177.643 119.297C177.643 119.297 177.643 119.297 177.644 119.297C177.644 119.297 177.645 119.297 177.645 119.297C177.646 119.297 177.646 119.297 177.646 119.297C177.647 119.297 177.647 119.297 177.648 119.297C177.648 119.297 177.649 119.297 177.649 119.297C177.649 119.297 177.65 119.297 177.65 119.297C177.651 119.297 177.651 119.297 177.652 119.297C177.652 119.297 177.652 119.297 177.653 119.297C177.653 119.297 177.654 119.297 177.654 119.297C177.655 119.297 177.655 119.297 177.655 119.297C177.656 119.297 177.656 119.297 177.657 119.297C177.657 119.297 177.658 119.297 177.658 119.297C177.658 119.297 177.659 119.297 177.659 119.297C177.66 119.297 177.66 119.297 177.661 119.297C177.661 119.297 177.661 119.297 177.662 119.297C177.662 119.297 177.663 119.297 177.663 119.297C177.664 119.297 177.664 119.297 177.664 119.297C177.665 119.297 177.665 119.297 177.666 119.297C177.666 119.297 177.667 119.297 177.667 119.297C177.667 119.297 177.668 119.297 177.668 119.297C177.669 119.297 177.669 119.297 177.67 119.297C177.67 119.297 177.671 119.297 177.671 119.297C177.671 119.297 177.672 119.297 177.672 119.297C177.673 119.297 177.673 119.297 177.674 119.297C177.674 119.297 177.674 119.297 177.675 119.297C177.675 119.297 177.676 119.297 177.676 119.297C177.677 119.297 177.677 119.297 177.677 119.297C177.678 119.297 177.678 119.297 177.679 119.297C177.679 119.297 177.68 119.297 177.68 119.297C177.68 119.297 177.681 119.297 177.681 119.297C177.682 119.297 177.682 119.297 177.683 119.297C177.683 119.297 177.683 119.297 177.684 119.297C177.684 119.297 177.685 119.297 177.685 119.297C177.686 119.297 177.686 119.297 177.686 119.297C177.687 119.297 177.687 119.297 177.688 119.297C177.688 119.297 177.689 119.297 177.689 119.297C177.689 119.297 177.69 119.297 177.69 119.297C177.691 119.297 177.691 119.297 177.692 119.297C177.692 119.297 177.692 119.297 177.693 119.297C177.693 119.297 177.694 119.297 177.694 119.297C177.695 119.297 177.695 119.297 177.695 119.297C177.696 119.297 177.696 119.297 177.697 119.297C177.697 119.297 177.698 119.297 177.698 119.297C177.698 119.297 177.699 119.297 177.699 119.297C177.7 119.297 177.7 119.297 177.7 119.297C177.701 119.297 177.701 119.297 177.702 119.297C177.702 119.297 177.703 119.297 177.703 119.297C177.703 119.297 177.704 119.297 177.704 119.297C177.705 119.297 177.705 119.297 177.706 119.297V118.297ZM177.018 118.297V117.297H163.284V118.297V119.297H177.018V118.297ZM163.284 118.297H162.284V128H163.284H164.284V118.297H163.284ZM163.284 128V127H160.284V128V129H163.284V128ZM160.284 128H161.284V104H160.284H159.284V128H160.284ZM163.284 115.703V116.703H176.549V115.703V114.703H163.284V115.703ZM176.549 115.703V116.703C178.345 116.703 179.789 116.646 180.864 116.525L180.753 115.531L180.641 114.537C179.674 114.646 178.316 114.703 176.549 114.703V115.703ZM180.753 115.531L180.873 116.524C181.948 116.394 182.882 116.159 183.551 115.737L183.018 114.891L182.485 114.045C182.196 114.227 181.619 114.419 180.632 114.539L180.753 115.531ZM183.018 114.891L183.543 115.742C184.253 115.304 184.728 114.658 184.927 113.848L183.956 113.609L182.984 113.371C182.912 113.665 182.762 113.873 182.493 114.04L183.018 114.891ZM183.956 113.609L184.927 113.848C185.089 113.188 185.159 112.386 185.159 111.469H184.159H183.159C183.159 112.302 183.093 112.927 182.984 113.371L183.956 113.609ZM184.159 111.469H185.159V110.844H184.159H183.159V111.469H184.159ZM184.159 110.844H185.159C185.159 109.807 185.063 108.906 184.828 108.189L183.878 108.5L182.927 108.811C183.067 109.24 183.159 109.901 183.159 110.844H184.159ZM183.878 108.5L184.828 108.189C184.552 107.347 183.984 106.718 183.186 106.333L182.753 107.234L182.319 108.135C182.646 108.293 182.828 108.507 182.927 108.811L183.878 108.5ZM182.753 107.234L183.186 106.333C182.451 105.979 181.46 105.797 180.302 105.721L180.237 106.719L180.172 107.717C181.243 107.787 181.929 107.948 182.319 108.135L182.753 107.234ZM180.237 106.719L180.311 105.722C179.161 105.636 177.644 105.594 175.768 105.594V106.594V107.594C177.622 107.594 179.083 107.635 180.162 107.716L180.237 106.719ZM175.768 106.594V105.594H163.284V106.594V107.594H175.768V106.594ZM163.284 106.594H162.284V115.703H163.284H164.284V106.594H163.284ZM190.846 128L189.982 127.496L189.105 129H190.846V128ZM204.846 104V103H204.272L203.982 103.496L204.846 104ZM208.846 104L209.71 103.496L209.421 103H208.846V104ZM222.846 128V129H224.587L223.71 127.496L222.846 128ZM219.346 128L218.468 128.479L218.753 129H219.346V128ZM216.346 122.5L217.224 122.021L216.94 121.5H216.346V122.5ZM197.346 122.5V121.5H196.753L196.468 122.021L197.346 122.5ZM194.346 128V129H194.94L195.224 128.479L194.346 128ZM198.846 120L197.978 119.504L197.123 121H198.846V120ZM214.846 120V121H216.569L215.714 119.504L214.846 120ZM206.846 106L207.714 105.504L206.846 103.984L205.978 105.504L206.846 106ZM190.846 128L191.71 128.504L205.71 104.504L204.846 104L203.982 103.496L189.982 127.496L190.846 128ZM204.846 104V105H208.846V104V103H204.846V104ZM208.846 104L207.982 104.504L221.982 128.504L222.846 128L223.71 127.496L209.71 103.496L208.846 104ZM222.846 128V127H219.346V128V129H222.846V128ZM219.346 128L220.224 127.521L217.224 122.021L216.346 122.5L215.468 122.979L218.468 128.479L219.346 128ZM216.346 122.5V121.5H197.346V122.5V123.5H216.346V122.5ZM197.346 122.5L196.468 122.021L193.468 127.521L194.346 128L195.224 128.479L198.224 122.979L197.346 122.5ZM194.346 128V127H190.846V128V129H194.346V128ZM198.846 120V121H214.846V120V119H198.846V120ZM214.846 120L215.714 119.504L207.714 105.504L206.846 106L205.978 106.496L213.978 120.496L214.846 120ZM206.846 106L205.978 105.504L197.978 119.504L198.846 120L199.714 120.496L207.714 106.496L206.846 106Z" fill="#F6F6F6" mask="url(#path-19-outside-1_63_60)"/>
<path d="M98.0136 144.233C97.1556 144.233 96.5106 143.924 96.0786 143.306C95.6526 142.682 95.4396 141.743 95.4396 140.489C95.4396 139.235 95.6586 138.299 96.0966 137.681C96.5406 137.057 97.2066 136.745 98.0946 136.745C98.5746 136.745 98.9886 136.847 99.3366 137.051C99.6846 137.255 99.9576 137.555 100.156 137.951C100.36 138.341 100.48 138.818 100.516 139.382H99.5706C99.4866 138.836 99.3186 138.422 99.0666 138.14C98.8206 137.852 98.4966 137.708 98.0946 137.708C97.5366 137.708 97.1256 137.933 96.8616 138.383C96.5976 138.833 96.4656 139.535 96.4656 140.489C96.4656 141.443 96.5886 142.145 96.8346 142.595C97.0866 143.045 97.4796 143.27 98.0136 143.27C98.3976 143.27 98.7066 143.138 98.9406 142.874C99.1746 142.61 99.3306 142.226 99.4086 141.722H100.354C100.318 142.256 100.204 142.712 100.012 143.09C99.8196 143.462 99.5526 143.747 99.2106 143.945C98.8746 144.137 98.4756 144.233 98.0136 144.233ZM104.162 144.233C103.286 144.233 102.629 143.921 102.191 143.297C101.753 142.673 101.534 141.737 101.534 140.489C101.534 139.241 101.753 138.305 102.191 137.681C102.629 137.057 103.286 136.745 104.162 136.745C105.038 136.745 105.695 137.057 106.133 137.681C106.571 138.305 106.79 139.241 106.79 140.489C106.79 141.737 106.571 142.673 106.133 143.297C105.695 143.921 105.038 144.233 104.162 144.233ZM104.162 143.27C104.714 143.27 105.119 143.045 105.377 142.595C105.635 142.145 105.764 141.443 105.764 140.489C105.764 139.535 105.635 138.833 105.377 138.383C105.119 137.933 104.714 137.708 104.162 137.708C103.61 137.708 103.205 137.933 102.947 138.383C102.689 138.833 102.56 139.535 102.56 140.489C102.56 141.443 102.689 142.145 102.947 142.595C103.205 143.045 103.61 143.27 104.162 143.27ZM108.475 136.889L109.042 141.713L109.159 143.369H109.258L109.807 138.689H111.202L111.715 143.369H111.814L111.949 141.713L112.525 136.889H113.407L112.525 144.089H111.058L110.527 139.292H110.428L109.861 144.089H108.403L107.521 136.889H108.475ZM116.766 144.233C115.89 144.233 115.233 143.921 114.795 143.297C114.357 142.673 114.138 141.737 114.138 140.489C114.138 139.241 114.357 138.305 114.795 137.681C115.233 137.057 115.89 136.745 116.766 136.745C117.642 136.745 118.299 137.057 118.737 137.681C119.175 138.305 119.394 139.241 119.394 140.489C119.394 141.737 119.175 142.673 118.737 143.297C118.299 143.921 117.642 144.233 116.766 144.233ZM116.766 143.27C117.318 143.27 117.723 143.045 117.981 142.595C118.239 142.145 118.368 141.443 118.368 140.489C118.368 139.535 118.239 138.833 117.981 138.383C117.723 137.933 117.318 137.708 116.766 137.708C116.214 137.708 115.809 137.933 115.551 138.383C115.293 138.833 115.164 139.535 115.164 140.489C115.164 141.443 115.293 142.145 115.551 142.595C115.809 143.045 116.214 143.27 116.766 143.27ZM120.953 144.089V136.889H123.392C123.854 136.889 124.256 136.973 124.598 137.141C124.94 137.309 125.204 137.549 125.39 137.861C125.582 138.173 125.678 138.542 125.678 138.968C125.678 139.37 125.582 139.721 125.39 140.021C125.198 140.321 124.931 140.558 124.589 140.732C124.247 140.9 123.848 140.984 123.392 140.984H121.979V144.089H120.953ZM124.688 144.089L122.744 140.804H123.851L125.858 144.089H124.688ZM121.979 140.093H123.41C123.788 140.093 124.088 139.991 124.31 139.787C124.538 139.583 124.652 139.313 124.652 138.977C124.652 138.635 124.538 138.362 124.31 138.158C124.088 137.954 123.788 137.852 123.41 137.852H121.979V140.093ZM127.461 136.889H128.487V144.089H127.461V136.889ZM130.71 144.089L128.181 140.606L130.872 136.889H132.06L129.396 140.561L131.961 144.089H130.71ZM133.358 144.089V143.126H135.158V137.852H133.358V136.889H137.984V137.852H136.184V143.126H137.984V144.089H133.358ZM139.597 144.089V136.889H141.343L143.341 143.432H143.44L143.404 141.362V136.889H144.349V144.089H142.603L140.605 137.546H140.506L140.542 139.616V144.089H139.597ZM148.131 144.224C147.387 144.224 146.805 143.909 146.385 143.279C145.971 142.643 145.764 141.713 145.764 140.489C145.764 139.241 145.986 138.305 146.43 137.681C146.874 137.057 147.537 136.745 148.419 136.745C148.893 136.745 149.301 136.844 149.643 137.042C149.991 137.234 150.264 137.513 150.462 137.879C150.666 138.239 150.789 138.68 150.831 139.202H149.877C149.787 138.722 149.622 138.353 149.382 138.095C149.142 137.837 148.821 137.708 148.419 137.708C147.861 137.708 147.45 137.933 147.186 138.383C146.922 138.833 146.79 139.535 146.79 140.489C146.79 141.461 146.922 142.178 147.186 142.64C147.45 143.096 147.858 143.324 148.41 143.324C148.662 143.324 148.893 143.24 149.103 143.072C149.313 142.898 149.481 142.67 149.607 142.388C149.733 142.1 149.796 141.785 149.796 141.443H148.266V140.489H150.669V144.089H149.796V143.522H149.526C149.424 143.738 149.25 143.909 149.004 144.035C148.758 144.161 148.467 144.224 148.131 144.224Z" fill="white"/>
</svg>
