<svg width="61" height="59" viewBox="0 0 61 59" fill="none" xmlns="http://www.w3.org/2000/svg">
<path fill-rule="evenodd" clip-rule="evenodd" d="M51.3501 32.395H42.3501C37.3791 32.395 33.3501 36.2321 33.3501 40.9664V49.5378C33.3501 54.2721 37.3791 58.1092 42.3501 58.1092H51.3501C56.3211 58.1092 60.3501 54.2721 60.3501 49.5378V40.9664C60.3501 36.2321 56.3211 32.395 51.3501 32.395ZM18.3501 32.395H9.3501C4.3791 32.395 0.350098 36.2321 0.350098 40.9664V49.5378C0.350098 54.2721 4.3791 58.1092 9.3501 58.1092H18.3501C23.3211 58.1092 27.3501 54.2721 27.3501 49.5378V40.9664C27.3501 36.2321 23.3211 32.395 18.3501 32.395ZM51.3501 0.966385H42.3501C37.3791 0.966385 33.3501 4.80353 33.3501 9.53781V18.1092C33.3501 22.8435 37.3791 26.6807 42.3501 26.6807H51.3501C56.3211 26.6807 60.3501 22.8435 60.3501 18.1092V9.53781C60.3501 4.80353 56.3211 0.966385 51.3501 0.966385ZM27.3501 9.53781V18.1092C27.3501 22.8435 23.3211 26.6807 18.3501 26.6807H9.3501C4.3791 26.6807 0.350098 22.8435 0.350098 18.1092V9.53781C0.350098 4.80353 4.3791 0.966385 9.3501 0.966385H18.3501C23.3211 0.966385 27.3501 4.80353 27.3501 9.53781Z" fill="#F6F6F6"/>
</svg>
