<svg width="230" height="72" viewBox="0 0 230 72" fill="none" xmlns="http://www.w3.org/2000/svg">
<path d="M143.627 54.195C143.285 54.195 142.976 54.255 142.7 54.375C142.424 54.489 142.19 54.66 141.998 54.888C141.806 55.11 141.659 55.383 141.557 55.707C141.455 56.025 141.404 56.385 141.404 56.787C141.404 57.315 141.485 57.774 141.647 58.164C141.815 58.554 142.061 58.854 142.385 59.064C142.715 59.274 143.126 59.379 143.618 59.379C143.9 59.379 144.167 59.355 144.419 59.307C144.671 59.259 144.917 59.199 145.157 59.127V59.829C144.917 59.919 144.668 59.985 144.41 60.027C144.158 60.069 143.855 60.09 143.501 60.09C142.847 60.09 142.301 59.955 141.863 59.685C141.425 59.415 141.095 59.031 140.873 58.533C140.657 58.035 140.549 57.45 140.549 56.778C140.549 56.292 140.615 55.848 140.747 55.446C140.885 55.044 141.083 54.696 141.341 54.402C141.605 54.108 141.929 53.883 142.313 53.727C142.697 53.565 143.138 53.484 143.636 53.484C143.966 53.484 144.284 53.517 144.59 53.583C144.896 53.649 145.169 53.742 145.409 53.862L145.085 54.546C144.887 54.456 144.665 54.375 144.419 54.303C144.179 54.231 143.915 54.195 143.627 54.195ZM151.991 56.778C151.991 57.276 151.928 57.729 151.802 58.137C151.676 58.539 151.487 58.887 151.235 59.181C150.989 59.475 150.68 59.7 150.308 59.856C149.942 60.012 149.516 60.09 149.03 60.09C148.526 60.09 148.088 60.012 147.716 59.856C147.344 59.694 147.035 59.469 146.789 59.181C146.543 58.887 146.36 58.536 146.24 58.128C146.12 57.72 146.06 57.267 146.06 56.769C146.06 56.109 146.168 55.533 146.384 55.041C146.6 54.549 146.927 54.165 147.365 53.889C147.809 53.613 148.367 53.475 149.039 53.475C149.681 53.475 150.221 53.613 150.659 53.889C151.097 54.159 151.427 54.543 151.649 55.041C151.877 55.533 151.991 56.112 151.991 56.778ZM146.915 56.778C146.915 57.318 146.99 57.783 147.14 58.173C147.29 58.563 147.521 58.863 147.833 59.073C148.151 59.283 148.55 59.388 149.03 59.388C149.516 59.388 149.912 59.283 150.218 59.073C150.53 58.863 150.761 58.563 150.911 58.173C151.061 57.783 151.136 57.318 151.136 56.778C151.136 55.968 150.968 55.335 150.632 54.879C150.296 54.417 149.765 54.186 149.039 54.186C148.553 54.186 148.151 54.291 147.833 54.501C147.521 54.705 147.29 55.002 147.14 55.392C146.99 55.776 146.915 56.238 146.915 56.778ZM160.707 53.574L158.997 60H158.178L156.927 55.788C156.891 55.662 156.855 55.533 156.819 55.401C156.783 55.269 156.75 55.143 156.72 55.023C156.69 54.903 156.663 54.801 156.639 54.717C156.621 54.627 156.609 54.561 156.603 54.519C156.597 54.561 156.585 54.627 156.567 54.717C156.555 54.801 156.534 54.903 156.504 55.023C156.474 55.143 156.441 55.272 156.405 55.41C156.375 55.542 156.339 55.677 156.297 55.815L155.082 60H154.263L152.562 53.574H153.408L154.407 57.498C154.443 57.636 154.476 57.774 154.506 57.912C154.536 58.044 154.563 58.176 154.587 58.308C154.617 58.434 154.641 58.557 154.659 58.677C154.677 58.797 154.695 58.914 154.713 59.028C154.731 58.908 154.749 58.785 154.767 58.659C154.791 58.533 154.818 58.404 154.848 58.272C154.878 58.134 154.911 57.996 154.947 57.858C154.983 57.72 155.019 57.585 155.055 57.453L156.189 53.574H157.026L158.205 57.48C158.247 57.618 158.286 57.759 158.322 57.903C158.358 58.041 158.391 58.176 158.421 58.308C158.451 58.44 158.475 58.569 158.493 58.695C158.517 58.815 158.538 58.926 158.556 59.028C158.574 58.878 158.598 58.722 158.628 58.56C158.658 58.392 158.694 58.218 158.736 58.038C158.778 57.858 158.823 57.675 158.871 57.489L159.861 53.574H160.707ZM167.213 56.778C167.213 57.276 167.15 57.729 167.024 58.137C166.898 58.539 166.709 58.887 166.457 59.181C166.211 59.475 165.902 59.7 165.53 59.856C165.164 60.012 164.738 60.09 164.252 60.09C163.748 60.09 163.31 60.012 162.938 59.856C162.566 59.694 162.257 59.469 162.011 59.181C161.765 58.887 161.582 58.536 161.462 58.128C161.342 57.72 161.282 57.267 161.282 56.769C161.282 56.109 161.39 55.533 161.606 55.041C161.822 54.549 162.149 54.165 162.587 53.889C163.031 53.613 163.589 53.475 164.261 53.475C164.903 53.475 165.443 53.613 165.881 53.889C166.319 54.159 166.649 54.543 166.871 55.041C167.099 55.533 167.213 56.112 167.213 56.778ZM162.137 56.778C162.137 57.318 162.212 57.783 162.362 58.173C162.512 58.563 162.743 58.863 163.055 59.073C163.373 59.283 163.772 59.388 164.252 59.388C164.738 59.388 165.134 59.283 165.44 59.073C165.752 58.863 165.983 58.563 166.133 58.173C166.283 57.783 166.358 57.318 166.358 56.778C166.358 55.968 166.19 55.335 165.854 54.879C165.518 54.417 164.987 54.186 164.261 54.186C163.775 54.186 163.373 54.291 163.055 54.501C162.743 54.705 162.512 55.002 162.362 55.392C162.212 55.776 162.137 56.238 162.137 56.778ZM170.411 53.574C170.945 53.574 171.383 53.643 171.725 53.781C172.073 53.913 172.331 54.114 172.499 54.384C172.667 54.654 172.751 54.993 172.751 55.401C172.751 55.743 172.688 56.028 172.562 56.256C172.436 56.484 172.274 56.667 172.076 56.805C171.884 56.937 171.68 57.042 171.464 57.12L173.228 60H172.283L170.726 57.345H169.448V60H168.638V53.574H170.411ZM170.366 54.276H169.448V56.661H170.411C170.759 56.661 171.044 56.616 171.266 56.526C171.488 56.43 171.65 56.292 171.752 56.112C171.86 55.932 171.914 55.707 171.914 55.437C171.914 55.155 171.857 54.93 171.743 54.762C171.635 54.594 171.467 54.471 171.239 54.393C171.011 54.315 170.72 54.276 170.366 54.276ZM178.934 60H177.98L175.703 56.931L175.046 57.507V60H174.236V53.574H175.046V56.742C175.226 56.538 175.409 56.334 175.595 56.13C175.781 55.926 175.967 55.722 176.153 55.518L177.89 53.574H178.835L176.288 56.373L178.934 60ZM181.618 60H179.296V59.532L180.052 59.361V54.222L179.296 54.042V53.574H181.618V54.042L180.862 54.222V59.361L181.618 59.532V60ZM187.952 60H187.007L183.569 54.663H183.533C183.539 54.771 183.545 54.891 183.551 55.023C183.563 55.155 183.572 55.299 183.578 55.455C183.584 55.605 183.59 55.761 183.596 55.923C183.602 56.085 183.605 56.247 183.605 56.409V60H182.858V53.574H183.794L187.223 58.893H187.259C187.253 58.821 187.247 58.722 187.241 58.596C187.235 58.464 187.229 58.32 187.223 58.164C187.217 58.002 187.211 57.837 187.205 57.669C187.199 57.501 187.196 57.345 187.196 57.201V53.574H187.952V60ZM192.486 56.607H194.709V59.757C194.361 59.871 194.01 59.955 193.656 60.009C193.302 60.063 192.9 60.09 192.45 60.09C191.784 60.09 191.223 59.958 190.767 59.694C190.311 59.424 189.963 59.043 189.723 58.551C189.489 58.053 189.372 57.465 189.372 56.787C189.372 56.115 189.504 55.533 189.768 55.041C190.032 54.549 190.41 54.168 190.902 53.898C191.4 53.622 192 53.484 192.702 53.484C193.062 53.484 193.401 53.517 193.719 53.583C194.043 53.649 194.343 53.742 194.619 53.862L194.313 54.564C194.085 54.462 193.827 54.375 193.539 54.303C193.257 54.231 192.963 54.195 192.657 54.195C192.147 54.195 191.709 54.3 191.343 54.51C190.977 54.72 190.698 55.02 190.506 55.41C190.314 55.794 190.218 56.253 190.218 56.787C190.218 57.297 190.299 57.75 190.461 58.146C190.629 58.536 190.89 58.842 191.244 59.064C191.598 59.28 192.063 59.388 192.639 59.388C192.831 59.388 192.999 59.382 193.143 59.37C193.293 59.352 193.428 59.331 193.548 59.307C193.674 59.283 193.791 59.259 193.899 59.235V57.327H192.486V56.607Z" fill="white"/>
<g clip-path="url(#clip0_67_83)">
<path d="M121.76 23.4575L119.943 21.64C123.014 19.6855 126.635 18.7761 130.266 19.0473C133.897 19.3185 137.343 20.7558 140.09 23.145L154.615 8.61749L156.383 10.385L141.858 24.91C144.246 27.6577 145.683 31.1037 145.953 34.7343C146.224 38.3649 145.314 41.9859 143.36 45.0575L141.543 43.24C143.143 40.4795 143.786 37.2676 143.372 34.1037C142.959 30.9399 141.511 28.0013 139.255 25.7451C136.999 23.4889 134.06 22.0414 130.896 21.6277C127.732 21.2139 124.521 21.8572 121.76 23.4575ZM129 50.5C126.455 50.504 123.953 49.8366 121.748 48.5653C119.542 47.2939 117.711 45.4635 116.439 43.2586C115.167 41.0537 114.499 38.5524 114.502 36.0068C114.506 33.4613 115.18 30.9617 116.458 28.76L114.64 26.9425C112.686 30.0139 111.777 33.6343 112.048 37.2644C112.318 40.8945 113.755 44.3399 116.143 47.0875L101.618 61.615L103.383 63.3825L117.91 48.8575C120.658 51.2463 124.104 52.6832 127.734 52.9539C131.365 53.2247 134.986 52.3148 138.058 50.36L136.24 48.5425C134.042 49.8234 131.544 50.4988 129 50.5ZM139 36C139.001 37.3411 138.73 38.6686 138.205 39.9025C137.188 42.287 135.289 44.1866 132.905 45.205C131.071 45.9834 129.047 46.1963 127.091 45.8163C125.136 45.4363 123.339 44.4808 121.93 43.0723C120.521 41.6639 119.565 39.8667 119.185 37.9112C118.804 35.9558 119.017 33.9313 119.795 32.0975C120.812 29.713 122.711 27.8134 125.095 26.795C126.615 26.1494 128.272 25.8906 129.917 26.0417C131.562 26.1928 133.144 26.7491 134.521 27.6609C135.899 28.5727 137.029 29.8116 137.81 31.2668C138.592 32.722 139.001 34.3482 139 36ZM136.22 37.9175C136.397 37.2933 136.491 36.6487 136.5 36C136.498 34.0115 135.707 32.105 134.301 30.6989C132.895 29.2928 130.989 28.502 129 28.5C128.351 28.509 127.707 28.6031 127.083 28.78C125.811 29.1194 124.651 29.7881 123.72 30.7185C122.789 31.649 122.12 32.8085 121.78 34.08C121.603 34.705 121.509 35.3505 121.5 36C121.502 37.9885 122.293 39.895 123.699 41.3011C125.105 42.7072 127.012 43.498 129 43.5C129.649 43.491 130.293 43.3969 130.918 43.22C132.189 42.8806 133.349 42.2119 134.28 41.2814C135.211 40.351 135.88 39.189 136.22 37.9175Z" fill="#F6F6F6"/>
</g>
<path d="M15.0625 49V25H18.0625V35.5H40.0625V25H43.0625V49H40.0625V38H18.0625V49H15.0625ZM58.5794 49.5C56.2356 49.5 54.3085 49.3385 52.7981 49.0156C51.2877 48.7031 50.1054 48.1198 49.2513 47.2656C48.4075 46.4115 47.8138 45.1823 47.47 43.5781C47.1367 41.974 46.97 39.8854 46.97 37.3125V25H49.97V37.3125C49.97 39.0833 50.0325 40.5521 50.1575 41.7188C50.2825 42.8854 50.5169 43.8177 50.8606 44.5156C51.2044 45.2135 51.694 45.7344 52.3294 46.0781C52.9752 46.4219 53.8085 46.6458 54.8294 46.75C55.8502 46.8542 57.1002 46.9062 58.5794 46.9062H64.2356C65.7252 46.9062 66.9752 46.8542 67.9856 46.75C69.0065 46.6458 69.8346 46.4219 70.47 46.0781C71.1158 45.7344 71.6106 45.2135 71.9544 44.5156C72.2981 43.8177 72.5325 42.8854 72.6575 41.7188C72.7825 40.5521 72.845 39.0833 72.845 37.3125V25H75.845V37.3125C75.845 39.8854 75.6731 41.974 75.3294 43.5781C74.996 45.1823 74.4023 46.4115 73.5481 47.2656C72.7044 48.1198 71.5273 48.7031 70.0169 49.0156C68.5065 49.3385 66.5794 49.5 64.2356 49.5H58.5794ZM80.97 49V25H100.095C101.908 25 103.392 25.1719 104.548 25.5156C105.715 25.849 106.574 26.4479 107.126 27.3125C107.689 28.1667 107.97 29.3802 107.97 30.9531C107.97 32.3698 107.642 33.5417 106.986 34.4688C106.329 35.3958 105.324 35.9062 103.97 36C105.741 36.1771 107.017 36.8125 107.798 37.9062C108.579 38.9896 108.97 40.3542 108.97 42C108.97 43.4271 108.803 44.599 108.47 45.5156C108.147 46.4323 107.6 47.1458 106.829 47.6562C106.059 48.1562 105.012 48.5052 103.689 48.7031C102.376 48.901 100.736 49 98.7669 49H80.97ZM83.97 35H97.9544C99.569 35 100.892 34.9427 101.923 34.8281C102.954 34.7135 103.72 34.375 104.22 33.8125C104.72 33.25 104.97 32.2969 104.97 30.9531C104.97 29.901 104.819 29.1302 104.517 28.6406C104.225 28.151 103.725 27.8385 103.017 27.7031C102.309 27.5677 101.335 27.5 100.095 27.5H83.97V35ZM83.97 46.5H98.7669C100.194 46.5 101.371 46.4635 102.298 46.3906C103.236 46.3177 103.97 46.1406 104.501 45.8594C105.043 45.5781 105.423 45.1354 105.642 44.5312C105.861 43.9167 105.97 43.0729 105.97 42C105.97 40.8958 105.762 40.0365 105.345 39.4219C104.939 38.8073 104.366 38.3646 103.626 38.0938C102.897 37.8229 102.048 37.6562 101.079 37.5938C100.111 37.5312 99.069 37.5 97.9544 37.5H83.97V46.5ZM150.408 25H166.47C168.814 25 170.699 25.1042 172.126 25.3125C173.564 25.5208 174.652 25.8802 175.392 26.3906C176.131 26.901 176.631 27.599 176.892 28.4844C177.152 29.3698 177.283 30.4896 177.283 31.8438V32.4688C177.283 33.7188 177.131 34.7969 176.829 35.7031C176.538 36.599 175.97 37.3281 175.126 37.8906C174.283 38.4427 173.033 38.8333 171.376 39.0625L176.595 49H173.595L168.486 39.2812C168.277 39.2917 168.059 39.2969 167.829 39.2969C167.611 39.2969 167.381 39.2969 167.142 39.2969H153.408V49H150.408V25ZM153.408 36.7031H166.673C168.454 36.7031 169.855 36.6458 170.876 36.5312C171.908 36.4062 172.663 36.1927 173.142 35.8906C173.631 35.5885 173.944 35.1615 174.079 34.6094C174.215 34.0573 174.283 33.3438 174.283 32.4688V31.8438C174.283 30.8542 174.189 30.0729 174.001 29.5C173.814 28.9271 173.439 28.5052 172.876 28.2344C172.314 27.9635 171.475 27.7917 170.361 27.7188C169.246 27.6354 167.756 27.5938 165.892 27.5938H153.408V36.7031ZM180.97 49L194.97 25H198.97L212.97 49H209.47L206.47 43.5H187.47L184.47 49H180.97ZM188.97 41H204.97L196.97 27L188.97 41Z" fill="#F6F6F6"/>
<defs>
<clipPath id="clip0_67_83">
<rect width="60" height="60" fill="white" transform="translate(99 6)"/>
</clipPath>
</defs>
</svg>
